<?xml version="1.0" encoding="UTF-8" standalone="no"?><svg xmlns="http://www.w3.org/2000/svg" xmlns:xlink="http://www.w3.org/1999/xlink" contentStyleType="text/css" height="2169px" preserveAspectRatio="none" style="width:880px;height:2169px;background:#FFFFFF;" version="1.1" viewBox="0 0 880 2169" width="880px" zoomAndPan="magnify"><defs/><g><!--MD5=[535aab4de90d4dfa371a9b40d5438fc3]
cluster javax.swing--><g id="cluster_javax.swing"><path d="M541.5,2044 L624.5,2044 A3.75,3.75 0 0 1 627,2046.5 L634,2067.6094 L870.5,2067.6094 A2.5,2.5 0 0 1 873,2070.1094 L873,2159.5 A2.5,2.5 0 0 1 870.5,2162 L541.5,2162 A2.5,2.5 0 0 1 539,2159.5 L539,2046.5 A2.5,2.5 0 0 1 541.5,2044 " fill="none" style="stroke:#000000;stroke-width:1.5;"/><line style="stroke:#000000;stroke-width:1.5;" x1="539" x2="634" y1="2067.6094" y2="2067.6094"/><text fill="#000000" font-family="sans-serif" font-size="14" font-weight="bold" lengthAdjust="spacing" textLength="82" x="543" y="2060.5332">javax.swing</text></g><!--MD5=[d63c23c2d4b14118d71bd46d55a646bd]
cluster java.awt.event--><g id="cluster_java.awt.event"><path d="M8.5,2044 L111.5,2044 A3.75,3.75 0 0 1 114,2046.5 L121,2067.6094 L512.5,2067.6094 A2.5,2.5 0 0 1 515,2070.1094 L515,2159.5 A2.5,2.5 0 0 1 512.5,2162 L8.5,2162 A2.5,2.5 0 0 1 6,2159.5 L6,2046.5 A2.5,2.5 0 0 1 8.5,2044 " fill="none" style="stroke:#000000;stroke-width:1.5;"/><line style="stroke:#000000;stroke-width:1.5;" x1="6" x2="121" y1="2067.6094" y2="2067.6094"/><text fill="#000000" font-family="sans-serif" font-size="14" font-weight="bold" lengthAdjust="spacing" textLength="102" x="10" y="2060.5332">java.awt.event</text></g><!--MD5=[12e07151f6bbbbe1d88ea9a7fd36fa86]
cluster gameMenu--><g id="cluster_gameMenu"><path d="M573.5,174 L652.5,174 A3.75,3.75 0 0 1 655,176.5 L662,197.6094 L820.5,197.6094 A2.5,2.5 0 0 1 823,200.1094 L823,1011.5 A2.5,2.5 0 0 1 820.5,1014 L573.5,1014 A2.5,2.5 0 0 1 571,1011.5 L571,176.5 A2.5,2.5 0 0 1 573.5,174 " fill="none" style="stroke:#000000;stroke-width:1.5;"/><line style="stroke:#000000;stroke-width:1.5;" x1="571" x2="662" y1="197.6094" y2="197.6094"/><text fill="#000000" font-family="sans-serif" font-size="14" font-weight="bold" lengthAdjust="spacing" textLength="78" x="575" y="190.5332">gameMenu</text></g><!--MD5=[bc0528d3b9b8a775468f9c61d8c5f506]
cluster gameWin--><g id="cluster_gameWin"><path d="M375.5,1064 L440.5,1064 A3.75,3.75 0 0 1 443,1066.5 L450,1087.6094 L646.5,1087.6094 A2.5,2.5 0 0 1 649,1090.1094 L649,1991.5 A2.5,2.5 0 0 1 646.5,1994 L375.5,1994 A2.5,2.5 0 0 1 373,1991.5 L373,1066.5 A2.5,2.5 0 0 1 375.5,1064 " fill="none" style="stroke:#000000;stroke-width:1.5;"/><line style="stroke:#000000;stroke-width:1.5;" x1="373" x2="450" y1="1087.6094" y2="1087.6094"/><text fill="#000000" font-family="sans-serif" font-size="14" font-weight="bold" lengthAdjust="spacing" textLength="64" x="377" y="1080.5332">gameWin</text></g><!--MD5=[a70b0d373322012744ecc119c63f921b]
cluster main--><g id="cluster_main"><path d="M615.5,6 L649.5,6 A3.75,3.75 0 0 1 652,8.5 L659,29.6094 L778.5,29.6094 A2.5,2.5 0 0 1 781,32.1094 L781,121.5 A2.5,2.5 0 0 1 778.5,124 L615.5,124 A2.5,2.5 0 0 1 613,121.5 L613,8.5 A2.5,2.5 0 0 1 615.5,6 " fill="none" style="stroke:#000000;stroke-width:1.5;"/><line style="stroke:#000000;stroke-width:1.5;" x1="613" x2="659" y1="29.6094" y2="29.6094"/><text fill="#000000" font-family="sans-serif" font-size="14" font-weight="bold" lengthAdjust="spacing" textLength="33" x="617" y="22.5332">main</text></g><!--MD5=[5dcb259eeaf2df60634672fa5d7a361c]
class JDialog--><g id="elem_JDialog"><rect codeLine="137" fill="#F1F1F1" height="65.6094" id="JDialog" rx="2.5" ry="2.5" style="stroke:#181818;stroke-width:0.5;" width="78" x="664" y="2080"/><ellipse cx="679" cy="2096" fill="#ADD1B2" rx="11" ry="11" style="stroke:#181818;stroke-width:1.0;"/><path d="M681.7656,2091.875 Q681.9219,2091.6563 682.1094,2091.5469 Q682.2969,2091.4375 682.5156,2091.4375 Q682.8906,2091.4375 683.125,2091.7031 Q683.3594,2091.9531 683.3594,2092.5625 L683.3594,2094.0156 Q683.3594,2094.625 683.125,2094.8906 Q682.8906,2095.1563 682.5156,2095.1563 Q682.1719,2095.1563 681.9688,2094.9531 Q681.7656,2094.7656 681.6563,2094.25 Q681.6094,2093.8906 681.4219,2093.7031 Q681.0938,2093.3281 680.4844,2093.1094 Q679.875,2092.8906 679.25,2092.8906 Q678.4844,2092.8906 677.8438,2093.2188 Q677.2188,2093.5469 676.7188,2094.2969 Q676.2344,2095.0469 676.2344,2096.0781 L676.2344,2097.1719 Q676.2344,2098.4063 677.125,2099.2344 Q678.0156,2100.0469 679.6094,2100.0469 Q680.5469,2100.0469 681.2031,2099.7969 Q681.5938,2099.6406 682.0156,2099.2031 Q682.2813,2098.9375 682.4219,2098.8594 Q682.5781,2098.7813 682.7813,2098.7813 Q683.1094,2098.7813 683.3594,2099.0469 Q683.625,2099.2969 683.625,2099.6406 Q683.625,2099.9844 683.2813,2100.3906 Q682.7813,2100.9688 681.9844,2101.2969 Q680.9063,2101.75 679.6094,2101.75 Q678.0938,2101.75 676.8906,2101.125 Q675.9063,2100.625 675.2188,2099.5625 Q674.5313,2098.4844 674.5313,2097.2031 L674.5313,2096.0469 Q674.5313,2094.7188 675.1406,2093.5781 Q675.7656,2092.4219 676.8594,2091.8125 Q677.9531,2091.1875 679.1875,2091.1875 Q679.9219,2091.1875 680.5625,2091.3594 Q681.2188,2091.5156 681.7656,2091.875 Z " fill="#000000"/><text fill="#000000" font-family="sans-serif" font-size="14" lengthAdjust="spacing" textLength="46" x="693" y="2101.7285">JDialog</text><line style="stroke:#181818;stroke-width:0.5;" x1="665" x2="741" y1="2112" y2="2112"/><line style="stroke:#181818;stroke-width:0.5;" x1="665" x2="741" y1="2120" y2="2120"/><text fill="#000000" font-family="sans-serif" font-size="14" lengthAdjust="spacing" textLength="64" x="670" y="2138.5332">+JDialog()</text></g><!--MD5=[a520837ef4416b7ac44f8bb1541877a6]
class JFrame--><g id="elem_JFrame"><rect codeLine="133" fill="#F1F1F1" height="65.6094" id="JFrame" rx="2.5" ry="2.5" style="stroke:#181818;stroke-width:0.5;" width="79" x="777.5" y="2080"/><ellipse cx="792.5" cy="2096" fill="#ADD1B2" rx="11" ry="11" style="stroke:#181818;stroke-width:1.0;"/><path d="M795.2656,2091.875 Q795.4219,2091.6563 795.6094,2091.5469 Q795.7969,2091.4375 796.0156,2091.4375 Q796.3906,2091.4375 796.625,2091.7031 Q796.8594,2091.9531 796.8594,2092.5625 L796.8594,2094.0156 Q796.8594,2094.625 796.625,2094.8906 Q796.3906,2095.1563 796.0156,2095.1563 Q795.6719,2095.1563 795.4688,2094.9531 Q795.2656,2094.7656 795.1563,2094.25 Q795.1094,2093.8906 794.9219,2093.7031 Q794.5938,2093.3281 793.9844,2093.1094 Q793.375,2092.8906 792.75,2092.8906 Q791.9844,2092.8906 791.3438,2093.2188 Q790.7188,2093.5469 790.2188,2094.2969 Q789.7344,2095.0469 789.7344,2096.0781 L789.7344,2097.1719 Q789.7344,2098.4063 790.625,2099.2344 Q791.5156,2100.0469 793.1094,2100.0469 Q794.0469,2100.0469 794.7031,2099.7969 Q795.0938,2099.6406 795.5156,2099.2031 Q795.7813,2098.9375 795.9219,2098.8594 Q796.0781,2098.7813 796.2813,2098.7813 Q796.6094,2098.7813 796.8594,2099.0469 Q797.125,2099.2969 797.125,2099.6406 Q797.125,2099.9844 796.7813,2100.3906 Q796.2813,2100.9688 795.4844,2101.2969 Q794.4063,2101.75 793.1094,2101.75 Q791.5938,2101.75 790.3906,2101.125 Q789.4063,2100.625 788.7188,2099.5625 Q788.0313,2098.4844 788.0313,2097.2031 L788.0313,2096.0469 Q788.0313,2094.7188 788.6406,2093.5781 Q789.2656,2092.4219 790.3594,2091.8125 Q791.4531,2091.1875 792.6875,2091.1875 Q793.4219,2091.1875 794.0625,2091.3594 Q794.7188,2091.5156 795.2656,2091.875 Z " fill="#000000"/><text fill="#000000" font-family="sans-serif" font-size="14" lengthAdjust="spacing" textLength="47" x="806.5" y="2101.7285">JFrame</text><line style="stroke:#181818;stroke-width:0.5;" x1="778.5" x2="855.5" y1="2112" y2="2112"/><line style="stroke:#181818;stroke-width:0.5;" x1="778.5" x2="855.5" y1="2120" y2="2120"/><text fill="#000000" font-family="sans-serif" font-size="14" lengthAdjust="spacing" textLength="65" x="783.5" y="2138.5332">+JFrame()</text></g><!--MD5=[36afe292eb27441132c327893668631d]
class JPanel--><g id="elem_JPanel"><rect codeLine="141" fill="#F1F1F1" height="65.6094" id="JPanel" rx="2.5" ry="2.5" style="stroke:#181818;stroke-width:0.5;" width="74" x="555" y="2080"/><ellipse cx="570" cy="2096" fill="#ADD1B2" rx="11" ry="11" style="stroke:#181818;stroke-width:1.0;"/><path d="M572.7656,2091.875 Q572.9219,2091.6563 573.1094,2091.5469 Q573.2969,2091.4375 573.5156,2091.4375 Q573.8906,2091.4375 574.125,2091.7031 Q574.3594,2091.9531 574.3594,2092.5625 L574.3594,2094.0156 Q574.3594,2094.625 574.125,2094.8906 Q573.8906,2095.1563 573.5156,2095.1563 Q573.1719,2095.1563 572.9688,2094.9531 Q572.7656,2094.7656 572.6563,2094.25 Q572.6094,2093.8906 572.4219,2093.7031 Q572.0938,2093.3281 571.4844,2093.1094 Q570.875,2092.8906 570.25,2092.8906 Q569.4844,2092.8906 568.8438,2093.2188 Q568.2188,2093.5469 567.7188,2094.2969 Q567.2344,2095.0469 567.2344,2096.0781 L567.2344,2097.1719 Q567.2344,2098.4063 568.125,2099.2344 Q569.0156,2100.0469 570.6094,2100.0469 Q571.5469,2100.0469 572.2031,2099.7969 Q572.5938,2099.6406 573.0156,2099.2031 Q573.2813,2098.9375 573.4219,2098.8594 Q573.5781,2098.7813 573.7813,2098.7813 Q574.1094,2098.7813 574.3594,2099.0469 Q574.625,2099.2969 574.625,2099.6406 Q574.625,2099.9844 574.2813,2100.3906 Q573.7813,2100.9688 572.9844,2101.2969 Q571.9063,2101.75 570.6094,2101.75 Q569.0938,2101.75 567.8906,2101.125 Q566.9063,2100.625 566.2188,2099.5625 Q565.5313,2098.4844 565.5313,2097.2031 L565.5313,2096.0469 Q565.5313,2094.7188 566.1406,2093.5781 Q566.7656,2092.4219 567.8594,2091.8125 Q568.9531,2091.1875 570.1875,2091.1875 Q570.9219,2091.1875 571.5625,2091.3594 Q572.2188,2091.5156 572.7656,2091.875 Z " fill="#000000"/><text fill="#000000" font-family="sans-serif" font-size="14" lengthAdjust="spacing" textLength="42" x="584" y="2101.7285">JPanel</text><line style="stroke:#181818;stroke-width:0.5;" x1="556" x2="628" y1="2112" y2="2112"/><line style="stroke:#181818;stroke-width:0.5;" x1="556" x2="628" y1="2120" y2="2120"/><text fill="#000000" font-family="sans-serif" font-size="14" lengthAdjust="spacing" textLength="60" x="561" y="2138.5332">+JPanel()</text></g><!--MD5=[04935357b5c5a2aec56a7c93da5b843d]
class ActionListener--><g id="elem_ActionListener"><rect codeLine="145" fill="#F1F1F1" height="65.6094" id="ActionListener" rx="2.5" ry="2.5" style="stroke:#181818;stroke-width:0.5;" width="243" x="22.5" y="2080"/><ellipse cx="94.75" cy="2096" fill="#B4A7E5" rx="11" ry="11" style="stroke:#181818;stroke-width:1.0;"/><path d="M95.7031,2092.6406 L95.7031,2099.2969 L97.4219,2099.2969 Q98.0313,2099.2969 98.2969,2099.5313 Q98.5625,2099.7656 98.5625,2100.1563 Q98.5625,2100.5313 98.2969,2100.7656 Q98.0313,2101 97.4219,2101 L92.2813,2101 Q91.6719,2101 91.4063,2100.7656 Q91.1406,2100.5313 91.1406,2100.1406 Q91.1406,2099.7656 91.4063,2099.5313 Q91.6719,2099.2969 92.2813,2099.2969 L94,2099.2969 L94,2092.6406 L92.2813,2092.6406 Q91.6719,2092.6406 91.4063,2092.4063 Q91.1406,2092.1719 91.1406,2091.7813 Q91.1406,2091.4063 91.4063,2091.1719 Q91.6719,2090.9375 92.2813,2090.9375 L97.4219,2090.9375 Q98.0313,2090.9375 98.2969,2091.1719 Q98.5625,2091.4063 98.5625,2091.7813 Q98.5625,2092.1719 98.2969,2092.4063 Q98.0313,2092.6406 97.4219,2092.6406 L95.7031,2092.6406 Z " fill="#000000"/><text fill="#000000" font-family="sans-serif" font-size="14" font-style="italic" lengthAdjust="spacing" textLength="90" x="115.25" y="2101.7285">ActionListener</text><line style="stroke:#181818;stroke-width:0.5;" x1="23.5" x2="264.5" y1="2112" y2="2112"/><line style="stroke:#181818;stroke-width:0.5;" x1="23.5" x2="264.5" y1="2120" y2="2120"/><text fill="#000000" font-family="sans-serif" font-size="14" lengthAdjust="spacing" textLength="231" x="28.5" y="2138.5332">+actionPerformed(ActionEvent ) void</text></g><!--MD5=[a230fefe8292b977220ca10efe5b6e4e]
class KeyListener--><g id="elem_KeyListener"><rect codeLine="149" fill="#F1F1F1" height="65.6094" id="KeyListener" rx="2.5" ry="2.5" style="stroke:#181818;stroke-width:0.5;" width="198" x="301" y="2080"/><ellipse cx="358.25" cy="2096" fill="#B4A7E5" rx="11" ry="11" style="stroke:#181818;stroke-width:1.0;"/><path d="M359.2031,2092.6406 L359.2031,2099.2969 L360.9219,2099.2969 Q361.5313,2099.2969 361.7969,2099.5313 Q362.0625,2099.7656 362.0625,2100.1563 Q362.0625,2100.5313 361.7969,2100.7656 Q361.5313,2101 360.9219,2101 L355.7813,2101 Q355.1719,2101 354.9063,2100.7656 Q354.6406,2100.5313 354.6406,2100.1406 Q354.6406,2099.7656 354.9063,2099.5313 Q355.1719,2099.2969 355.7813,2099.2969 L357.5,2099.2969 L357.5,2092.6406 L355.7813,2092.6406 Q355.1719,2092.6406 354.9063,2092.4063 Q354.6406,2092.1719 354.6406,2091.7813 Q354.6406,2091.4063 354.9063,2091.1719 Q355.1719,2090.9375 355.7813,2090.9375 L360.9219,2090.9375 Q361.5313,2090.9375 361.7969,2091.1719 Q362.0625,2091.4063 362.0625,2091.7813 Q362.0625,2092.1719 361.7969,2092.4063 Q361.5313,2092.6406 360.9219,2092.6406 L359.2031,2092.6406 Z " fill="#000000"/><text fill="#000000" font-family="sans-serif" font-size="14" font-style="italic" lengthAdjust="spacing" textLength="75" x="378.75" y="2101.7285">KeyListener</text><line style="stroke:#181818;stroke-width:0.5;" x1="302" x2="498" y1="2112" y2="2112"/><line style="stroke:#181818;stroke-width:0.5;" x1="302" x2="498" y1="2120" y2="2120"/><text fill="#000000" font-family="sans-serif" font-size="14" lengthAdjust="spacing" textLength="186" x="307" y="2138.5332">+keyPressed(KeyEvent ) void</text></g><!--MD5=[f0268dd29ee89052933f031546cb1cab]
class Menu--><g id="elem_Menu"><rect codeLine="87" fill="#F1F1F1" height="787.5938" id="Menu" rx="2.5" ry="2.5" style="stroke:#181818;stroke-width:0.5;" width="219" x="587.5" y="210"/><ellipse cx="675.25" cy="226" fill="#ADD1B2" rx="11" ry="11" style="stroke:#181818;stroke-width:1.0;"/><path d="M678.0156,221.875 Q678.1719,221.6563 678.3594,221.5469 Q678.5469,221.4375 678.7656,221.4375 Q679.1406,221.4375 679.375,221.7031 Q679.6094,221.9531 679.6094,222.5625 L679.6094,224.0156 Q679.6094,224.625 679.375,224.8906 Q679.1406,225.1563 678.7656,225.1563 Q678.4219,225.1563 678.2188,224.9531 Q678.0156,224.7656 677.9063,224.25 Q677.8594,223.8906 677.6719,223.7031 Q677.3438,223.3281 676.7344,223.1094 Q676.125,222.8906 675.5,222.8906 Q674.7344,222.8906 674.0938,223.2188 Q673.4688,223.5469 672.9688,224.2969 Q672.4844,225.0469 672.4844,226.0781 L672.4844,227.1719 Q672.4844,228.4063 673.375,229.2344 Q674.2656,230.0469 675.8594,230.0469 Q676.7969,230.0469 677.4531,229.7969 Q677.8438,229.6406 678.2656,229.2031 Q678.5313,228.9375 678.6719,228.8594 Q678.8281,228.7813 679.0313,228.7813 Q679.3594,228.7813 679.6094,229.0469 Q679.875,229.2969 679.875,229.6406 Q679.875,229.9844 679.5313,230.3906 Q679.0313,230.9688 678.2344,231.2969 Q677.1563,231.75 675.8594,231.75 Q674.3438,231.75 673.1406,231.125 Q672.1563,230.625 671.4688,229.5625 Q670.7813,228.4844 670.7813,227.2031 L670.7813,226.0469 Q670.7813,224.7188 671.3906,223.5781 Q672.0156,222.4219 673.1094,221.8125 Q674.2031,221.1875 675.4375,221.1875 Q676.1719,221.1875 676.8125,221.3594 Q677.4688,221.5156 678.0156,221.875 Z " fill="#000000"/><text fill="#000000" font-family="sans-serif" font-size="14" lengthAdjust="spacing" textLength="35" x="695.75" y="231.7285">Menu</text><line style="stroke:#181818;stroke-width:0.5;" x1="588.5" x2="805.5" y1="242" y2="242"/><text fill="#000000" font-family="sans-serif" font-size="14" lengthAdjust="spacing" text-decoration="underline" textLength="162" x="593.5" y="260.5332">-final int SCREEN_WIDTH</text><text fill="#000000" font-family="sans-serif" font-size="14" lengthAdjust="spacing" text-decoration="underline" textLength="168" x="593.5" y="278.1426">-final int SCREEN_HEIGHT</text><text fill="#000000" font-family="sans-serif" font-size="14" lengthAdjust="spacing" textLength="4" x="593.5" y="295.752"> </text><text fill="#000000" font-family="sans-serif" font-size="14" lengthAdjust="spacing" text-decoration="underline" textLength="135" x="593.5" y="313.3613">-final int SMALL = 50;</text><text fill="#000000" font-family="sans-serif" font-size="14" lengthAdjust="spacing" text-decoration="underline" textLength="143" x="593.5" y="330.9707">-final int MEDIUM = 25;</text><text fill="#000000" font-family="sans-serif" font-size="14" lengthAdjust="spacing" text-decoration="underline" textLength="137" x="593.5" y="348.5801">-final int LARGE = 15;</text><text fill="#000000" font-family="sans-serif" font-size="14" lengthAdjust="spacing" textLength="4" x="593.5" y="366.1895"> </text><text fill="#000000" font-family="sans-serif" font-size="14" lengthAdjust="spacing" text-decoration="underline" textLength="134" x="593.5" y="383.7988">-final int EASY = 200;</text><text fill="#000000" font-family="sans-serif" font-size="14" lengthAdjust="spacing" text-decoration="underline" textLength="156" x="593.5" y="401.4082">-final int NORMAL = 150;</text><text fill="#000000" font-family="sans-serif" font-size="14" lengthAdjust="spacing" text-decoration="underline" textLength="136" x="593.5" y="419.0176">-final int HARD = 100;</text><text fill="#000000" font-family="sans-serif" font-size="14" lengthAdjust="spacing" textLength="4" x="593.5" y="436.627"> </text><text fill="#000000" font-family="sans-serif" font-size="14" lengthAdjust="spacing" textLength="92" x="593.5" y="454.2363">-int highScore;</text><text fill="#000000" font-family="sans-serif" font-size="14" lengthAdjust="spacing" textLength="4" x="593.5" y="471.8457"> </text><text fill="#000000" font-family="sans-serif" font-size="14" lengthAdjust="spacing" textLength="121" x="593.5" y="489.4551">-JPanel mainPanel;</text><text fill="#000000" font-family="sans-serif" font-size="14" lengthAdjust="spacing" textLength="4" x="593.5" y="507.0645"> </text><text fill="#000000" font-family="sans-serif" font-size="14" lengthAdjust="spacing" textLength="119" x="593.5" y="524.6738">-JPanel startPanel;</text><text fill="#000000" font-family="sans-serif" font-size="14" lengthAdjust="spacing" textLength="76" x="593.5" y="542.2832">-JLabel title;</text><text fill="#000000" font-family="sans-serif" font-size="14" lengthAdjust="spacing" textLength="126" x="593.5" y="559.8926">-JLabel instructions;</text><text fill="#000000" font-family="sans-serif" font-size="14" lengthAdjust="spacing" textLength="4" x="593.5" y="577.502"> </text><text fill="#000000" font-family="sans-serif" font-size="14" lengthAdjust="spacing" textLength="115" x="593.5" y="595.1113">-JPanel endPanel;</text><text fill="#000000" font-family="sans-serif" font-size="14" lengthAdjust="spacing" textLength="147" x="593.5" y="612.7207">-JButton startGameBtn;</text><text fill="#000000" font-family="sans-serif" font-size="14" lengthAdjust="spacing" textLength="4" x="593.5" y="630.3301"> </text><text fill="#000000" font-family="sans-serif" font-size="14" lengthAdjust="spacing" textLength="132" x="593.5" y="647.9395">-JPanel choicePanel;</text><text fill="#000000" font-family="sans-serif" font-size="14" lengthAdjust="spacing" textLength="4" x="593.5" y="665.5488"> </text><text fill="#000000" font-family="sans-serif" font-size="14" lengthAdjust="spacing" textLength="118" x="593.5" y="683.1582">-JPanel mapPanel;</text><text fill="#000000" font-family="sans-serif" font-size="14" lengthAdjust="spacing" textLength="116" x="593.5" y="700.7676">-JLabel mapLabel;</text><text fill="#000000" font-family="sans-serif" font-size="14" lengthAdjust="spacing" textLength="161" x="593.5" y="718.377">-ButtonGroup mapGroup;</text><text fill="#000000" font-family="sans-serif" font-size="14" lengthAdjust="spacing" textLength="190" x="593.5" y="735.9863">-JRadioButton mapSize_small;</text><text fill="#000000" font-family="sans-serif" font-size="14" lengthAdjust="spacing" textLength="207" x="593.5" y="753.5957">-JRadioButton mapSize_medium;</text><text fill="#000000" font-family="sans-serif" font-size="14" lengthAdjust="spacing" textLength="190" x="593.5" y="771.2051">-JRadioButton mapSize_large;</text><text fill="#000000" font-family="sans-serif" font-size="14" lengthAdjust="spacing" textLength="4" x="593.5" y="788.8145"> </text><text fill="#000000" font-family="sans-serif" font-size="14" lengthAdjust="spacing" textLength="142" x="593.5" y="806.4238">-JPanel difficultyPanel;</text><text fill="#000000" font-family="sans-serif" font-size="14" lengthAdjust="spacing" textLength="140" x="593.5" y="824.0332">-JLabel difficultyLabel;</text><text fill="#000000" font-family="sans-serif" font-size="14" lengthAdjust="spacing" textLength="185" x="593.5" y="841.6426">-ButtonGroup difficultyGroup;</text><text fill="#000000" font-family="sans-serif" font-size="14" lengthAdjust="spacing" textLength="186" x="593.5" y="859.252">-JRadioButton difficulty_easy;</text><text fill="#000000" font-family="sans-serif" font-size="14" lengthAdjust="spacing" textLength="199" x="593.5" y="876.8613">-JRadioButton difficulty_normal;</text><text fill="#000000" font-family="sans-serif" font-size="14" lengthAdjust="spacing" textLength="185" x="593.5" y="894.4707">-JRadioButton difficulty_hard;</text><line style="stroke:#181818;stroke-width:0.5;" x1="588.5" x2="805.5" y1="901.5469" y2="901.5469"/><text fill="#000000" font-family="sans-serif" font-size="14" lengthAdjust="spacing" textLength="53" x="593.5" y="920.0801">+Menu()</text><text fill="#000000" font-family="sans-serif" font-size="14" lengthAdjust="spacing" textLength="69" x="593.5" y="937.6895">-Menu(int )</text><text fill="#000000" font-family="sans-serif" font-size="14" lengthAdjust="spacing" textLength="115" x="593.5" y="955.2988">-addChooseMap()</text><text fill="#000000" font-family="sans-serif" font-size="14" lengthAdjust="spacing" textLength="141" x="593.5" y="972.9082">-addChooseDifficulty()</text><text fill="#000000" font-family="sans-serif" font-size="14" lengthAdjust="spacing" textLength="70" x="593.5" y="990.5176">-addStyle()</text></g><!--MD5=[bf3330f9b2f6f16f8b8ab17e091ad359]
class GameWin--><g id="elem_GameWin"><rect codeLine="82" fill="#F1F1F1" height="83.2188" id="GameWin" rx="2.5" ry="2.5" style="stroke:#181818;stroke-width:0.5;" width="166" x="467" y="1100"/><ellipse cx="514.75" cy="1116" fill="#ADD1B2" rx="11" ry="11" style="stroke:#181818;stroke-width:1.0;"/><path d="M517.5156,1111.875 Q517.6719,1111.6563 517.8594,1111.5469 Q518.0469,1111.4375 518.2656,1111.4375 Q518.6406,1111.4375 518.875,1111.7031 Q519.1094,1111.9531 519.1094,1112.5625 L519.1094,1114.0156 Q519.1094,1114.625 518.875,1114.8906 Q518.6406,1115.1563 518.2656,1115.1563 Q517.9219,1115.1563 517.7188,1114.9531 Q517.5156,1114.7656 517.4063,1114.25 Q517.3594,1113.8906 517.1719,1113.7031 Q516.8438,1113.3281 516.2344,1113.1094 Q515.625,1112.8906 515,1112.8906 Q514.2344,1112.8906 513.5938,1113.2188 Q512.9688,1113.5469 512.4688,1114.2969 Q511.9844,1115.0469 511.9844,1116.0781 L511.9844,1117.1719 Q511.9844,1118.4063 512.875,1119.2344 Q513.7656,1120.0469 515.3594,1120.0469 Q516.2969,1120.0469 516.9531,1119.7969 Q517.3438,1119.6406 517.7656,1119.2031 Q518.0313,1118.9375 518.1719,1118.8594 Q518.3281,1118.7813 518.5313,1118.7813 Q518.8594,1118.7813 519.1094,1119.0469 Q519.375,1119.2969 519.375,1119.6406 Q519.375,1119.9844 519.0313,1120.3906 Q518.5313,1120.9688 517.7344,1121.2969 Q516.6563,1121.75 515.3594,1121.75 Q513.8438,1121.75 512.6406,1121.125 Q511.6563,1120.625 510.9688,1119.5625 Q510.2813,1118.4844 510.2813,1117.2031 L510.2813,1116.0469 Q510.2813,1114.7188 510.8906,1113.5781 Q511.5156,1112.4219 512.6094,1111.8125 Q513.7031,1111.1875 514.9375,1111.1875 Q515.6719,1111.1875 516.3125,1111.3594 Q516.9688,1111.5156 517.5156,1111.875 Z " fill="#000000"/><text fill="#000000" font-family="sans-serif" font-size="14" lengthAdjust="spacing" textLength="62" x="535.25" y="1121.7285">GameWin</text><line style="stroke:#181818;stroke-width:0.5;" x1="468" x2="632" y1="1132" y2="1132"/><text fill="#000000" font-family="sans-serif" font-size="14" lengthAdjust="spacing" textLength="154" x="473" y="1150.5332">-GamePanel gamePanel</text><line style="stroke:#181818;stroke-width:0.5;" x1="468" x2="632" y1="1157.6094" y2="1157.6094"/><text fill="#000000" font-family="sans-serif" font-size="14" lengthAdjust="spacing" textLength="97" x="473" y="1176.1426">+GameFrame()</text></g><!--MD5=[5a86b91e4fae5a488308da74a22c75b5]
class GamePanel--><g id="elem_GamePanel"><rect codeLine="40" fill="#F1F1F1" height="717.1563" id="GamePanel" rx="2.5" ry="2.5" style="stroke:#181818;stroke-width:0.5;" width="243" x="389.5" y="1261"/><ellipse cx="469.75" cy="1277" fill="#ADD1B2" rx="11" ry="11" style="stroke:#181818;stroke-width:1.0;"/><path d="M472.5156,1272.875 Q472.6719,1272.6563 472.8594,1272.5469 Q473.0469,1272.4375 473.2656,1272.4375 Q473.6406,1272.4375 473.875,1272.7031 Q474.1094,1272.9531 474.1094,1273.5625 L474.1094,1275.0156 Q474.1094,1275.625 473.875,1275.8906 Q473.6406,1276.1563 473.2656,1276.1563 Q472.9219,1276.1563 472.7188,1275.9531 Q472.5156,1275.7656 472.4063,1275.25 Q472.3594,1274.8906 472.1719,1274.7031 Q471.8438,1274.3281 471.2344,1274.1094 Q470.625,1273.8906 470,1273.8906 Q469.2344,1273.8906 468.5938,1274.2188 Q467.9688,1274.5469 467.4688,1275.2969 Q466.9844,1276.0469 466.9844,1277.0781 L466.9844,1278.1719 Q466.9844,1279.4063 467.875,1280.2344 Q468.7656,1281.0469 470.3594,1281.0469 Q471.2969,1281.0469 471.9531,1280.7969 Q472.3438,1280.6406 472.7656,1280.2031 Q473.0313,1279.9375 473.1719,1279.8594 Q473.3281,1279.7813 473.5313,1279.7813 Q473.8594,1279.7813 474.1094,1280.0469 Q474.375,1280.2969 474.375,1280.6406 Q474.375,1280.9844 474.0313,1281.3906 Q473.5313,1281.9688 472.7344,1282.2969 Q471.6563,1282.75 470.3594,1282.75 Q468.8438,1282.75 467.6406,1282.125 Q466.6563,1281.625 465.9688,1280.5625 Q465.2813,1279.4844 465.2813,1278.2031 L465.2813,1277.0469 Q465.2813,1275.7188 465.8906,1274.5781 Q466.5156,1273.4219 467.6094,1272.8125 Q468.7031,1272.1875 469.9375,1272.1875 Q470.6719,1272.1875 471.3125,1272.3594 Q471.9688,1272.5156 472.5156,1272.875 Z " fill="#000000"/><text fill="#000000" font-family="sans-serif" font-size="14" lengthAdjust="spacing" textLength="74" x="490.25" y="1282.7285">GamePanel</text><line style="stroke:#181818;stroke-width:0.5;" x1="390.5" x2="631.5" y1="1293" y2="1293"/><text fill="#000000" font-family="sans-serif" font-size="14" lengthAdjust="spacing" text-decoration="underline" textLength="162" x="395.5" y="1311.5332">-final int SCREEN_WIDTH</text><text fill="#000000" font-family="sans-serif" font-size="14" lengthAdjust="spacing" text-decoration="underline" textLength="168" x="395.5" y="1329.1426">-final int SCREEN_HEIGHT</text><text fill="#000000" font-family="sans-serif" font-size="14" lengthAdjust="spacing" textLength="103" x="395.5" y="1346.752">-final int unitSize</text><text fill="#000000" font-family="sans-serif" font-size="14" lengthAdjust="spacing" textLength="120" x="395.5" y="1364.3613">-final int gameUnits</text><text fill="#000000" font-family="sans-serif" font-size="14" lengthAdjust="spacing" textLength="88" x="395.5" y="1381.9707">-final int delay</text><text fill="#000000" font-family="sans-serif" font-size="14" lengthAdjust="spacing" textLength="108" x="395.5" y="1399.5801">-final int[] snakeX</text><text fill="#000000" font-family="sans-serif" font-size="14" lengthAdjust="spacing" textLength="109" x="395.5" y="1417.1895">-final int[] snakeY</text><text fill="#000000" font-family="sans-serif" font-size="14" lengthAdjust="spacing" textLength="136" x="395.5" y="1434.7988">-final String fontName</text><text fill="#000000" font-family="sans-serif" font-size="14" lengthAdjust="spacing" textLength="4" x="395.5" y="1452.4082"> </text><text fill="#000000" font-family="sans-serif" font-size="14" lengthAdjust="spacing" textLength="67" x="395.5" y="1470.0176">-int appleX</text><text fill="#000000" font-family="sans-serif" font-size="14" lengthAdjust="spacing" textLength="68" x="395.5" y="1487.627">-int appleY</text><text fill="#000000" font-family="sans-serif" font-size="14" lengthAdjust="spacing" textLength="4" x="395.5" y="1505.2363"> </text><text fill="#000000" font-family="sans-serif" font-size="14" lengthAdjust="spacing" textLength="88" x="395.5" y="1522.8457">-int bodyParts</text><text fill="#000000" font-family="sans-serif" font-size="14" lengthAdjust="spacing" textLength="59" x="395.5" y="1540.4551">-int score</text><text fill="#000000" font-family="sans-serif" font-size="14" lengthAdjust="spacing" textLength="88" x="395.5" y="1558.0645">-int highScore</text><text fill="#000000" font-family="sans-serif" font-size="14" lengthAdjust="spacing" textLength="91" x="395.5" y="1575.6738">-char direction</text><text fill="#000000" font-family="sans-serif" font-size="14" lengthAdjust="spacing" textLength="108" x="395.5" y="1593.2832">-boolean running</text><text fill="#000000" font-family="sans-serif" font-size="14" lengthAdjust="spacing" textLength="107" x="395.5" y="1610.8926">-boolean paused</text><text fill="#000000" font-family="sans-serif" font-size="14" lengthAdjust="spacing" textLength="76" x="395.5" y="1628.502">-Timer timer</text><text fill="#000000" font-family="sans-serif" font-size="14" lengthAdjust="spacing" textLength="110" x="395.5" y="1646.1113">-Random random</text><line style="stroke:#181818;stroke-width:0.5;" x1="390.5" x2="631.5" y1="1653.1875" y2="1653.1875"/><text fill="#000000" font-family="sans-serif" font-size="14" lengthAdjust="spacing" textLength="92" x="395.5" y="1671.7207">+GamePanel()</text><text fill="#000000" font-family="sans-serif" font-size="14" lengthAdjust="spacing" textLength="111" x="395.5" y="1689.3301">-void startGame()</text><text fill="#000000" font-family="sans-serif" font-size="14" lengthAdjust="spacing" textLength="110" x="395.5" y="1706.9395">-void initialState()</text><text fill="#000000" font-family="sans-serif" font-size="14" lengthAdjust="spacing" textLength="136" x="395.5" y="1724.5488">-void draw(Graphics )</text><text fill="#000000" font-family="sans-serif" font-size="14" lengthAdjust="spacing" textLength="175" x="395.5" y="1742.1582">-void showScore(Graphics )</text><text fill="#000000" font-family="sans-serif" font-size="14" lengthAdjust="spacing" textLength="121" x="395.5" y="1759.7676">-void spawnApple()</text><text fill="#000000" font-family="sans-serif" font-size="14" lengthAdjust="spacing" textLength="101" x="395.5" y="1777.377">-void eatApple()</text><text fill="#000000" font-family="sans-serif" font-size="14" lengthAdjust="spacing" textLength="79" x="395.5" y="1794.9863">-void move()</text><text fill="#000000" font-family="sans-serif" font-size="14" lengthAdjust="spacing" textLength="142" x="395.5" y="1812.5957">-void checkCollisions()</text><text fill="#000000" font-family="sans-serif" font-size="14" lengthAdjust="spacing" textLength="154" x="395.5" y="1830.2051">-void updateHighScore()</text><text fill="#000000" font-family="sans-serif" font-size="14" lengthAdjust="spacing" textLength="111" x="395.5" y="1847.8145">-void gameOver()</text><text fill="#000000" font-family="sans-serif" font-size="14" lengthAdjust="spacing" textLength="124" x="395.5" y="1865.4238">-void togglePause()</text><text fill="#000000" font-family="sans-serif" font-size="14" lengthAdjust="spacing" textLength="122" x="395.5" y="1883.0332">-void pauseGame()</text><text fill="#000000" font-family="sans-serif" font-size="14" lengthAdjust="spacing" textLength="115" x="395.5" y="1900.6426">-void resetGame()</text><text fill="#000000" font-family="sans-serif" font-size="14" lengthAdjust="spacing" textLength="108" x="395.5" y="1918.252">-void gotoMenu()</text><text fill="#000000" font-family="sans-serif" font-size="14" lengthAdjust="spacing" textLength="209" x="395.5" y="1935.8613">#void paintComponent(Graphics)</text><text fill="#000000" font-family="sans-serif" font-size="14" lengthAdjust="spacing" textLength="231" x="395.5" y="1953.4707">+void actionPerformed(ActionEvent )</text><text fill="#000000" font-family="sans-serif" font-size="14" lengthAdjust="spacing" textLength="186" x="395.5" y="1971.0801">+void keyPressed(KeyEvent )</text></g><!--MD5=[84718776d214be480e4c259efcb737fc]
class Main--><g id="elem_Main"><rect codeLine="36" fill="#F1F1F1" height="65.6094" id="Main" rx="2.5" ry="2.5" style="stroke:#181818;stroke-width:0.5;" width="135" x="629.5" y="42"/><ellipse cx="677.75" cy="58" fill="#ADD1B2" rx="11" ry="11" style="stroke:#181818;stroke-width:1.0;"/><path d="M680.5156,53.875 Q680.6719,53.6563 680.8594,53.5469 Q681.0469,53.4375 681.2656,53.4375 Q681.6406,53.4375 681.875,53.7031 Q682.1094,53.9531 682.1094,54.5625 L682.1094,56.0156 Q682.1094,56.625 681.875,56.8906 Q681.6406,57.1563 681.2656,57.1563 Q680.9219,57.1563 680.7188,56.9531 Q680.5156,56.7656 680.4063,56.25 Q680.3594,55.8906 680.1719,55.7031 Q679.8438,55.3281 679.2344,55.1094 Q678.625,54.8906 678,54.8906 Q677.2344,54.8906 676.5938,55.2188 Q675.9688,55.5469 675.4688,56.2969 Q674.9844,57.0469 674.9844,58.0781 L674.9844,59.1719 Q674.9844,60.4063 675.875,61.2344 Q676.7656,62.0469 678.3594,62.0469 Q679.2969,62.0469 679.9531,61.7969 Q680.3438,61.6406 680.7656,61.2031 Q681.0313,60.9375 681.1719,60.8594 Q681.3281,60.7813 681.5313,60.7813 Q681.8594,60.7813 682.1094,61.0469 Q682.375,61.2969 682.375,61.6406 Q682.375,61.9844 682.0313,62.3906 Q681.5313,62.9688 680.7344,63.2969 Q679.6563,63.75 678.3594,63.75 Q676.8438,63.75 675.6406,63.125 Q674.6563,62.625 673.9688,61.5625 Q673.2813,60.4844 673.2813,59.2031 L673.2813,58.0469 Q673.2813,56.7188 673.8906,55.5781 Q674.5156,54.4219 675.6094,53.8125 Q676.7031,53.1875 677.9375,53.1875 Q678.6719,53.1875 679.3125,53.3594 Q679.9688,53.5156 680.5156,53.875 Z " fill="#000000"/><text fill="#000000" font-family="sans-serif" font-size="14" lengthAdjust="spacing" textLength="30" x="698.25" y="63.7285">Main</text><line style="stroke:#181818;stroke-width:0.5;" x1="630.5" x2="763.5" y1="74" y2="74"/><line style="stroke:#181818;stroke-width:0.5;" x1="630.5" x2="763.5" y1="82" y2="82"/><text fill="#000000" font-family="sans-serif" font-size="14" lengthAdjust="spacing" text-decoration="underline" textLength="123" x="635.5" y="100.5332">+void main(String[])</text></g><!--MD5=[f22a87d8b2dda854986c95028248cc2b]
link Menu to JFrame--><g id="link_Menu_JFrame"><path codeLine="17" d="M742.06,998.43 C751.1,1084.86 759.97,1175.96 767,1261 C792.99,1575.28 810.35,1955.96 815.45,2074.77 " fill="none" id="Menu-to-JFrame" style="stroke:#181818;stroke-width:1.0;"/><polygon fill="#181818" points="815.67,2079.89,819.281,2070.727,815.4559,2074.8946,811.2883,2071.0695,815.67,2079.89" style="stroke:#181818;stroke-width:1.0;"/><text fill="#000000" font-family="sans-serif" font-size="13" lengthAdjust="spacing" textLength="46" x="765" y="1227.4951">extends</text></g><!--MD5=[96ea0c46f81ab6782b8b938ff527d4a2]
link Menu to GameWin--><g id="link_Menu_GameWin"><path codeLine="23" d="M589.1,998.05 C579.67,1032.41 571.21,1063.22 564.6,1087.32 " fill="none" id="Menu-to-GameWin" style="stroke:#181818;stroke-width:1.0;"/><polygon fill="#181818" points="561.12,1100,566.5655,1095.2728,564.2964,1088.428,558.8509,1093.1552,561.12,1100" style="stroke:#181818;stroke-width:1.0;"/><text fill="#000000" font-family="sans-serif" font-size="13" lengthAdjust="spacing" textLength="36" x="579" y="1044.4951">import</text></g><!--MD5=[f2532cb280408eafbfbb71b9a4d683da]
link GameWin to GamePanel--><g id="link_GameWin_GamePanel"><path codeLine="24" d="M546.67,1183.08 C545.38,1198.91 543.76,1218.61 541.94,1240.82 " fill="none" id="GameWin-to-GamePanel" style="stroke:#181818;stroke-width:1.0;"/><polygon fill="none" points="548.9,1241.59,540.29,1260.96,534.95,1240.45,548.9,1241.59" style="stroke:#181818;stroke-width:1.0;"/><text fill="#000000" font-family="sans-serif" font-size="13" lengthAdjust="spacing" textLength="95" x="544" y="1227.4951">child component</text></g><!--MD5=[4ab7b4c2c5f9675a23b3a504aa4fca8e]
link GamePanel to KeyListener--><g id="link_GamePanel_KeyListener"><path codeLine="25" d="M430.26,1978.02 C421.52,2016.72 413.84,2050.72 408.4,2074.78 " fill="none" id="GamePanel-to-KeyListener" style="stroke:#181818;stroke-width:1.0;"/><polygon fill="#181818" points="407.28,2079.77,413.1591,2071.8684,408.3782,2074.8921,405.3545,2070.1112,407.28,2079.77" style="stroke:#181818;stroke-width:1.0;"/><text fill="#000000" font-family="sans-serif" font-size="13" lengthAdjust="spacing" textLength="67" x="422" y="2024.4951">implements</text></g><!--MD5=[a5486920ea3edf03318448fcaa448019]
link GamePanel to ActionListener--><g id="link_GamePanel_ActionListener"><path codeLine="26" d="M389.3,1783.48 C311.47,1887.72 216.83,2014.46 171.2,2075.58 " fill="none" id="GamePanel-to-ActionListener" style="stroke:#181818;stroke-width:1.0;"/><polygon fill="#181818" points="168,2079.86,176.589,2075.0403,170.9908,2075.8531,170.178,2070.255,168,2079.86" style="stroke:#181818;stroke-width:1.0;"/><text fill="#000000" font-family="sans-serif" font-size="13" lengthAdjust="spacing" textLength="67" x="215" y="2024.4951">implements</text></g><!--MD5=[ec74f7e1cf6a04ef07661afbad596f7f]
link GamePanel to JPanel--><g id="link_GamePanel_JPanel"><path codeLine="27" d="M569.92,1978.02 C576.3,2016.72 581.9,2050.72 585.87,2074.78 " fill="none" id="GamePanel-to-JPanel" style="stroke:#181818;stroke-width:1.0;"/><polygon fill="#181818" points="586.69,2079.77,589.1694,2070.2383,585.875,2074.8369,581.2764,2071.5424,586.69,2079.77" style="stroke:#181818;stroke-width:1.0;"/><text fill="#000000" font-family="sans-serif" font-size="13" lengthAdjust="spacing" textLength="46" x="577" y="2024.4951">extends</text></g><!--MD5=[e72784d56f2047e707ce927a4f441112]
link GameWin to JDialog--><g id="link_GameWin_JDialog"><path codeLine="28" d="M623.21,1183.41 C633.03,1191.94 641.82,1201.81 648,1213 C731.42,1364.21 711.83,1923.75 704.89,2074.42 " fill="none" id="GameWin-to-JDialog" style="stroke:#181818;stroke-width:1.0;"/><polygon fill="#181818" points="704.65,2079.61,709.0819,2070.8147,704.8926,2074.6159,701.0913,2070.4265,704.65,2079.61" style="stroke:#181818;stroke-width:1.0;"/><text fill="#000000" font-family="sans-serif" font-size="13" lengthAdjust="spacing" textLength="46" x="712" y="1624.9951">extends</text></g><!--MD5=[fa29a82adaa93eb2ae38acf2d2dc0f01]
link Main to Menu--><g id="link_Main_Menu"><path codeLine="33" d="M697,108.17 C697,129.62 697,160.41 697,196.29 " fill="none" id="Main-to-Menu" style="stroke:#181818;stroke-width:1.0;"/><polygon fill="#181818" points="697,209.73,701,203.73,697,197.73,693,203.73,697,209.73" style="stroke:#181818;stroke-width:1.0;"/><text fill="#000000" font-family="sans-serif" font-size="13" lengthAdjust="spacing" textLength="36" x="698" y="154.4951">import</text></g><!--MD5=[52a74e2f63c0cf033cf2126beb300906]
@startuml gameClassDiagram

    skinparam classAttributeIconSize 0

    package javax.swing {
        class JDialog
        class JFrame
        class JPanel
    }

    package java.awt.event {
        interface ActionListener
        interface KeyListener
    }

    package gameMenu {
        class Menu
        Menu - -> JFrame : extends
    }

    package gameWin {
        class GameWin
        class GamePanel
        Menu - -* GameWin : import
        GameWin - -|> GamePanel : child component
        GamePanel - -> KeyListener : implements
        GamePanel - -> ActionListener : implements
        GamePanel - -> JPanel : extends
        GameWin - -> JDialog : extends
    }

    package main {
        class Main
        Main - -* Menu : import
    }

    class Main {
        + {static} void main(String[])
    }

    class GamePanel {
        - {static} final int SCREEN_WIDTH
        - {static} final int SCREEN_HEIGHT
        - final int unitSize
        - final int gameUnits
        - final int delay
        - final int[] snakeX
        - final int[] snakeY
        - final String fontName

        - int appleX
        - int appleY

        - int bodyParts
        - int score
        - int highScore
        - char direction
        - boolean running
        - boolean paused
        - Timer timer
        - Random random

        + GamePanel()
        - void startGame()
        - void initialState()
        - void draw(Graphics )
        - void showScore(Graphics )
        - void spawnApple()
        - void eatApple()
        - void move()
        - void checkCollisions()
        - void updateHighScore()
        - void gameOver()
        - void togglePause()
        - void pauseGame()
        - void resetGame()
        - void gotoMenu()
        # void paintComponent(Graphics)
        + void actionPerformed(ActionEvent )
        + void keyPressed(KeyEvent )
    }

    class GameWin {
        - GamePanel gamePanel
        + GameFrame()
    }

    class Menu {
        - {static} final int SCREEN_WIDTH
        - {static} final int SCREEN_HEIGHT

        - {static} final int SMALL = 50;
        - {static} final int MEDIUM = 25;
        - {static} final int LARGE = 15;

        - {static} final int EASY = 200;
        - {static} final int NORMAL = 150;
        - {static} final int HARD = 100;

        - int highScore;

        - JPanel mainPanel;

        - JPanel startPanel;
        - JLabel title;
        - JLabel instructions;

        - JPanel endPanel;
        - JButton startGameBtn;

        - JPanel choicePanel;

        - JPanel mapPanel;
        - JLabel mapLabel;
        - ButtonGroup mapGroup;
        - JRadioButton mapSize_small;
        - JRadioButton mapSize_medium;
        - JRadioButton mapSize_large;

        - JPanel difficultyPanel;
        - JLabel difficultyLabel;
        - ButtonGroup difficultyGroup;
        - JRadioButton difficulty_easy;
        - JRadioButton difficulty_normal;
        - JRadioButton difficulty_hard;

        + Menu()
        - Menu(int )
        - addChooseMap()
        - addChooseDifficulty()
        - addStyle()
    }

    class JFrame {
        + JFrame()
    }

    class JDialog {
        + JDialog()
    }

    class JPanel {
        + JPanel()
    }

    interface ActionListener {
        + actionPerformed(ActionEvent ) void
    }

    interface KeyListener {
        + keyPressed(KeyEvent ) void
    }

@enduml

PlantUML version 1.2022.7(Mon Aug 22 22:01:30 PKT 2022)
(GPL source distribution)
Java Runtime: OpenJDK Runtime Environment
JVM: OpenJDK 64-Bit Server VM
Default Encoding: UTF-8
Language: en
Country: US
--></g></svg>