<?xml version="1.0" encoding="UTF-8" standalone="no"?><svg xmlns="http://www.w3.org/2000/svg" xmlns:xlink="http://www.w3.org/1999/xlink" contentStyleType="text/css" height="43px" preserveAspectRatio="none" style="width:241px;height:43px;background:#FFFFFF;" version="1.1" viewBox="0 0 241 43" width="241px" zoomAndPan="magnify"><defs/><g><rect fill="#F1F1F1" height="21.6094" rx="5" ry="5" style="stroke:#F1F1F1;stroke-width:1.5;" width="98" x="10" y="10"/><text fill="#000000" font-family="sans-serif" font-size="14" font-weight="bold" lengthAdjust="spacing" textLength="66" x="15" y="26.5332">GameWin</text><text fill="#000000" font-family="sans-serif" font-size="14" lengthAdjust="spacing" textLength="12" x="91" y="26.5332">   </text><line style="stroke:#000000;stroke-width:1.0;" x1="86" x2="86" y1="10" y2="31.6094"/><rect fill="none" height="21.6094" rx="5" ry="5" style="stroke:#000000;stroke-width:1.5;" width="98" x="10" y="10"/><rect fill="#F1F1F1" height="21.6094" rx="5" ry="5" style="stroke:#F1F1F1;stroke-width:1.5;" width="84" x="145" y="10"/><text fill="#000000" font-family="sans-serif" font-size="14" lengthAdjust="spacing" textLength="74" x="150" y="26.5332">GamePanel</text><rect fill="none" height="21.6094" rx="5" ry="5" style="stroke:#000000;stroke-width:1.5;" width="84" x="145" y="10"/><path d="M96,21 L109,21 C118.3427,21 128.319,21 137.8977,21 " fill="none" style="stroke:#000000;stroke-width:1.0;stroke-dasharray:3.0,3.0;"/><path d="M137.8977,24.0308 L140.1708,21 L137.8977,17.9692 L145.4748,21 L137.8977,24.0308 " fill="#000000" style="stroke:#000000;stroke-width:1.0;"/><ellipse cx="96" cy="21" fill="#000000" rx="3" ry="3" style="stroke:#000000;stroke-width:1.0;"/><!--MD5=[58255377b61bf448c7399590007028ba]
@startyaml gameUI

    GameWin:
        - GamePanel

@endyaml

PlantUML version 1.2022.7(Mon Aug 22 22:01:30 PKT 2022)
(GPL source distribution)
Java Runtime: OpenJDK Runtime Environment
JVM: OpenJDK 64-Bit Server VM
Default Encoding: UTF-8
Language: en
Country: US
--></g></svg>