<?xml version="1.0" encoding="UTF-8" standalone="no"?><svg xmlns="http://www.w3.org/2000/svg" xmlns:xlink="http://www.w3.org/1999/xlink" contentStyleType="text/css" height="1237px" preserveAspectRatio="none" style="width:1585px;height:1237px;background:#FFFFFF;" version="1.1" viewBox="0 0 1585 1237" width="1585px" zoomAndPan="magnify"><defs/><g><!--MD5=[bc0528d3b9b8a775468f9c61d8c5f506]
cluster gameWin--><g id="cluster_gameWin"><path d="M735.11,6 L800.11,6 A3.75,3.75 0 0 1 802.61,8.5 L809.61,29.6094 L1576.11,29.6094 A2.5,2.5 0 0 1 1578.61,32.1094 L1578.61,1227.5 A2.5,2.5 0 0 1 1576.11,1230 L735.11,1230 A2.5,2.5 0 0 1 732.61,1227.5 L732.61,8.5 A2.5,2.5 0 0 1 735.11,6 " fill="none" style="stroke:#000000;stroke-width:1.5;"/><line style="stroke:#000000;stroke-width:1.5;" x1="732.61" x2="809.61" y1="29.6094" y2="29.6094"/><text fill="#000000" font-family="sans-serif" font-size="14" font-weight="bold" lengthAdjust="spacing" textLength="64" x="736.61" y="22.5332">gameWin</text></g><!--MD5=[aa8f7b917213fcc1c2766e2d59b49067]
cluster java.lang--><g id="cluster_java.lang"><path d="M585.11,603 L649.11,603 A3.75,3.75 0 0 1 651.61,605.5 L658.61,626.6094 L706.11,626.6094 A2.5,2.5 0 0 1 708.61,629.1094 L708.61,700.5 A2.5,2.5 0 0 1 706.11,703 L585.11,703 A2.5,2.5 0 0 1 582.61,700.5 L582.61,605.5 A2.5,2.5 0 0 1 585.11,603 " fill="none" style="stroke:#000000;stroke-width:1.5;"/><line style="stroke:#000000;stroke-width:1.5;" x1="582.61" x2="658.61" y1="626.6094" y2="626.6094"/><text fill="#000000" font-family="sans-serif" font-size="14" font-weight="bold" lengthAdjust="spacing" textLength="63" x="586.61" y="619.5332">java.lang</text></g><!--MD5=[12e07151f6bbbbe1d88ea9a7fd36fa86]
cluster gameMenu--><g id="cluster_gameMenu"><path d="M313.11,242 L392.11,242 A3.75,3.75 0 0 1 394.61,244.5 L401.61,265.6094 L556.11,265.6094 A2.5,2.5 0 0 1 558.61,268.1094 L558.61,1061.5 A2.5,2.5 0 0 1 556.11,1064 L313.11,1064 A2.5,2.5 0 0 1 310.61,1061.5 L310.61,244.5 A2.5,2.5 0 0 1 313.11,242 " fill="none" style="stroke:#000000;stroke-width:1.5;"/><line style="stroke:#000000;stroke-width:1.5;" x1="310.61" x2="401.61" y1="265.6094" y2="265.6094"/><text fill="#000000" font-family="sans-serif" font-size="14" font-weight="bold" lengthAdjust="spacing" textLength="78" x="314.61" y="258.5332">gameMenu</text></g><!--MD5=[535aab4de90d4dfa371a9b40d5438fc3]
cluster javax.swing--><g id="cluster_javax.swing"><path d="M56.11,1121 L139.11,1121 A3.75,3.75 0 0 1 141.61,1123.5 L148.61,1144.6094 L385.11,1144.6094 A2.5,2.5 0 0 1 387.61,1147.1094 L387.61,1218.5 A2.5,2.5 0 0 1 385.11,1221 L56.11,1221 A2.5,2.5 0 0 1 53.61,1218.5 L53.61,1123.5 A2.5,2.5 0 0 1 56.11,1121 " fill="none" style="stroke:#000000;stroke-width:1.5;"/><line style="stroke:#000000;stroke-width:1.5;" x1="53.61" x2="148.61" y1="1144.6094" y2="1144.6094"/><text fill="#000000" font-family="sans-serif" font-size="14" font-weight="bold" lengthAdjust="spacing" textLength="82" x="57.61" y="1137.5332">javax.swing</text></g><!--MD5=[d63c23c2d4b14118d71bd46d55a646bd]
cluster java.awt.event--><g id="cluster_java.awt.event"><path d="M414.11,1121 L517.11,1121 A3.75,3.75 0 0 1 519.61,1123.5 L526.61,1144.6094 L706.11,1144.6094 A2.5,2.5 0 0 1 708.61,1147.1094 L708.61,1218.5 A2.5,2.5 0 0 1 706.11,1221 L414.11,1221 A2.5,2.5 0 0 1 411.61,1218.5 L411.61,1123.5 A2.5,2.5 0 0 1 414.11,1121 " fill="none" style="stroke:#000000;stroke-width:1.5;"/><line style="stroke:#000000;stroke-width:1.5;" x1="411.61" x2="526.61" y1="1144.6094" y2="1144.6094"/><text fill="#000000" font-family="sans-serif" font-size="14" font-weight="bold" lengthAdjust="spacing" textLength="102" x="415.61" y="1137.5332">java.awt.event</text></g><!--MD5=[a70b0d373322012744ecc119c63f921b]
cluster main--><g id="cluster_main"><path d="M161.11,41 L195.11,41 A3.75,3.75 0 0 1 197.61,43.5 L204.61,64.6094 L324.11,64.6094 A2.5,2.5 0 0 1 326.61,67.1094 L326.61,156.5 A2.5,2.5 0 0 1 324.11,159 L161.11,159 A2.5,2.5 0 0 1 158.61,156.5 L158.61,43.5 A2.5,2.5 0 0 1 161.11,41 " fill="none" style="stroke:#000000;stroke-width:1.5;"/><line style="stroke:#000000;stroke-width:1.5;" x1="158.61" x2="204.61" y1="64.6094" y2="64.6094"/><text fill="#000000" font-family="sans-serif" font-size="14" font-weight="bold" lengthAdjust="spacing" textLength="33" x="162.61" y="57.5332">main</text></g><!--MD5=[20ec477ed7835c9ff4d227bf84185d29]
class gameWin.IllegalUnitSizeException--><g id="elem_gameWin.IllegalUnitSizeException"><rect codeLine="33" fill="#F1F1F1" height="48" id="gameWin.IllegalUnitSizeException" rx="2.5" ry="2.5" style="stroke:#181818;stroke-width:0.5;" width="179" x="1183.11" y="86"/><ellipse cx="1198.11" cy="102" fill="#ADD1B2" rx="11" ry="11" style="stroke:#181818;stroke-width:1.0;"/><path d="M1200.8756,97.875 Q1201.0319,97.6563 1201.2194,97.5469 Q1201.4069,97.4375 1201.6256,97.4375 Q1202.0006,97.4375 1202.235,97.7031 Q1202.4694,97.9531 1202.4694,98.5625 L1202.4694,100.0156 Q1202.4694,100.625 1202.235,100.8906 Q1202.0006,101.1563 1201.6256,101.1563 Q1201.2819,101.1563 1201.0788,100.9531 Q1200.8756,100.7656 1200.7663,100.25 Q1200.7194,99.8906 1200.5319,99.7031 Q1200.2038,99.3281 1199.5944,99.1094 Q1198.985,98.8906 1198.36,98.8906 Q1197.5944,98.8906 1196.9538,99.2188 Q1196.3288,99.5469 1195.8288,100.2969 Q1195.3444,101.0469 1195.3444,102.0781 L1195.3444,103.1719 Q1195.3444,104.4063 1196.235,105.2344 Q1197.1256,106.0469 1198.7194,106.0469 Q1199.6569,106.0469 1200.3131,105.7969 Q1200.7038,105.6406 1201.1256,105.2031 Q1201.3913,104.9375 1201.5319,104.8594 Q1201.6881,104.7813 1201.8913,104.7813 Q1202.2194,104.7813 1202.4694,105.0469 Q1202.735,105.2969 1202.735,105.6406 Q1202.735,105.9844 1202.3913,106.3906 Q1201.8913,106.9688 1201.0944,107.2969 Q1200.0163,107.75 1198.7194,107.75 Q1197.2038,107.75 1196.0006,107.125 Q1195.0163,106.625 1194.3288,105.5625 Q1193.6413,104.4844 1193.6413,103.2031 L1193.6413,102.0469 Q1193.6413,100.7188 1194.2506,99.5781 Q1194.8756,98.4219 1195.9694,97.8125 Q1197.0631,97.1875 1198.2975,97.1875 Q1199.0319,97.1875 1199.6725,97.3594 Q1200.3288,97.5156 1200.8756,97.875 Z " fill="#000000"/><text fill="#000000" font-family="sans-serif" font-size="14" lengthAdjust="spacing" textLength="147" x="1212.11" y="107.7285">IllegalUnitSizeException</text><line style="stroke:#181818;stroke-width:0.5;" x1="1184.11" x2="1361.11" y1="118" y2="118"/><line style="stroke:#181818;stroke-width:0.5;" x1="1184.11" x2="1361.11" y1="126" y2="126"/></g><!--MD5=[15e783a0bd115956f666e2477b7601e1]
class gameWin.IllegalDelayException--><g id="elem_gameWin.IllegalDelayException"><rect codeLine="34" fill="#F1F1F1" height="48" id="gameWin.IllegalDelayException" rx="2.5" ry="2.5" style="stroke:#181818;stroke-width:0.5;" width="165" x="1397.11" y="86"/><ellipse cx="1412.11" cy="102" fill="#ADD1B2" rx="11" ry="11" style="stroke:#181818;stroke-width:1.0;"/><path d="M1414.8756,97.875 Q1415.0319,97.6563 1415.2194,97.5469 Q1415.4069,97.4375 1415.6256,97.4375 Q1416.0006,97.4375 1416.235,97.7031 Q1416.4694,97.9531 1416.4694,98.5625 L1416.4694,100.0156 Q1416.4694,100.625 1416.235,100.8906 Q1416.0006,101.1563 1415.6256,101.1563 Q1415.2819,101.1563 1415.0788,100.9531 Q1414.8756,100.7656 1414.7663,100.25 Q1414.7194,99.8906 1414.5319,99.7031 Q1414.2038,99.3281 1413.5944,99.1094 Q1412.985,98.8906 1412.36,98.8906 Q1411.5944,98.8906 1410.9538,99.2188 Q1410.3288,99.5469 1409.8288,100.2969 Q1409.3444,101.0469 1409.3444,102.0781 L1409.3444,103.1719 Q1409.3444,104.4063 1410.235,105.2344 Q1411.1256,106.0469 1412.7194,106.0469 Q1413.6569,106.0469 1414.3131,105.7969 Q1414.7038,105.6406 1415.1256,105.2031 Q1415.3913,104.9375 1415.5319,104.8594 Q1415.6881,104.7813 1415.8913,104.7813 Q1416.2194,104.7813 1416.4694,105.0469 Q1416.735,105.2969 1416.735,105.6406 Q1416.735,105.9844 1416.3913,106.3906 Q1415.8913,106.9688 1415.0944,107.2969 Q1414.0163,107.75 1412.7194,107.75 Q1411.2038,107.75 1410.0006,107.125 Q1409.0163,106.625 1408.3288,105.5625 Q1407.6413,104.4844 1407.6413,103.2031 L1407.6413,102.0469 Q1407.6413,100.7188 1408.2506,99.5781 Q1408.8756,98.4219 1409.9694,97.8125 Q1411.0631,97.1875 1412.2975,97.1875 Q1413.0319,97.1875 1413.6725,97.3594 Q1414.3288,97.5156 1414.8756,97.875 Z " fill="#000000"/><text fill="#000000" font-family="sans-serif" font-size="14" lengthAdjust="spacing" textLength="133" x="1426.11" y="107.7285">IllegalDelayException</text><line style="stroke:#181818;stroke-width:0.5;" x1="1398.11" x2="1561.11" y1="118" y2="118"/><line style="stroke:#181818;stroke-width:0.5;" x1="1398.11" x2="1561.11" y1="126" y2="126"/></g><!--MD5=[27f24be811dfb4ae03917a575c97c8bd]
class gameWin.NoScoreListenerException--><g id="elem_gameWin.NoScoreListenerException"><rect codeLine="35" fill="#F1F1F1" height="48" id="gameWin.NoScoreListenerException" rx="2.5" ry="2.5" style="stroke:#181818;stroke-width:0.5;" width="198" x="748.61" y="86"/><ellipse cx="763.61" cy="102" fill="#ADD1B2" rx="11" ry="11" style="stroke:#181818;stroke-width:1.0;"/><path d="M766.3756,97.875 Q766.5319,97.6563 766.7194,97.5469 Q766.9069,97.4375 767.1256,97.4375 Q767.5006,97.4375 767.735,97.7031 Q767.9694,97.9531 767.9694,98.5625 L767.9694,100.0156 Q767.9694,100.625 767.735,100.8906 Q767.5006,101.1563 767.1256,101.1563 Q766.7819,101.1563 766.5788,100.9531 Q766.3756,100.7656 766.2663,100.25 Q766.2194,99.8906 766.0319,99.7031 Q765.7038,99.3281 765.0944,99.1094 Q764.485,98.8906 763.86,98.8906 Q763.0944,98.8906 762.4538,99.2188 Q761.8288,99.5469 761.3288,100.2969 Q760.8444,101.0469 760.8444,102.0781 L760.8444,103.1719 Q760.8444,104.4063 761.735,105.2344 Q762.6256,106.0469 764.2194,106.0469 Q765.1569,106.0469 765.8131,105.7969 Q766.2038,105.6406 766.6256,105.2031 Q766.8913,104.9375 767.0319,104.8594 Q767.1881,104.7813 767.3913,104.7813 Q767.7194,104.7813 767.9694,105.0469 Q768.235,105.2969 768.235,105.6406 Q768.235,105.9844 767.8913,106.3906 Q767.3913,106.9688 766.5944,107.2969 Q765.5163,107.75 764.2194,107.75 Q762.7038,107.75 761.5006,107.125 Q760.5163,106.625 759.8288,105.5625 Q759.1413,104.4844 759.1413,103.2031 L759.1413,102.0469 Q759.1413,100.7188 759.7506,99.5781 Q760.3756,98.4219 761.4694,97.8125 Q762.5631,97.1875 763.7975,97.1875 Q764.5319,97.1875 765.1725,97.3594 Q765.8288,97.5156 766.3756,97.875 Z " fill="#000000"/><text fill="#000000" font-family="sans-serif" font-size="14" lengthAdjust="spacing" textLength="166" x="777.61" y="107.7285">NoScoreListenerException</text><line style="stroke:#181818;stroke-width:0.5;" x1="749.61" x2="945.61" y1="118" y2="118"/><line style="stroke:#181818;stroke-width:0.5;" x1="749.61" x2="945.61" y1="126" y2="126"/></g><!--MD5=[61b6aa88ee60abbbf96d0e59aa0fb6e4]
class gameWin.GameWin--><g id="elem_gameWin.GameWin"><rect codeLine="161" fill="#F1F1F1" height="136.0469" id="gameWin.GameWin" rx="2.5" ry="2.5" style="stroke:#181818;stroke-width:0.5;" width="166" x="981.61" y="42"/><ellipse cx="1029.36" cy="58" fill="#ADD1B2" rx="11" ry="11" style="stroke:#181818;stroke-width:1.0;"/><path d="M1032.1256,53.875 Q1032.2819,53.6563 1032.4694,53.5469 Q1032.6569,53.4375 1032.8756,53.4375 Q1033.2506,53.4375 1033.485,53.7031 Q1033.7194,53.9531 1033.7194,54.5625 L1033.7194,56.0156 Q1033.7194,56.625 1033.485,56.8906 Q1033.2506,57.1563 1032.8756,57.1563 Q1032.5319,57.1563 1032.3288,56.9531 Q1032.1256,56.7656 1032.0163,56.25 Q1031.9694,55.8906 1031.7819,55.7031 Q1031.4538,55.3281 1030.8444,55.1094 Q1030.235,54.8906 1029.61,54.8906 Q1028.8444,54.8906 1028.2038,55.2188 Q1027.5788,55.5469 1027.0788,56.2969 Q1026.5944,57.0469 1026.5944,58.0781 L1026.5944,59.1719 Q1026.5944,60.4063 1027.485,61.2344 Q1028.3756,62.0469 1029.9694,62.0469 Q1030.9069,62.0469 1031.5631,61.7969 Q1031.9538,61.6406 1032.3756,61.2031 Q1032.6413,60.9375 1032.7819,60.8594 Q1032.9381,60.7813 1033.1413,60.7813 Q1033.4694,60.7813 1033.7194,61.0469 Q1033.985,61.2969 1033.985,61.6406 Q1033.985,61.9844 1033.6413,62.3906 Q1033.1413,62.9688 1032.3444,63.2969 Q1031.2663,63.75 1029.9694,63.75 Q1028.4538,63.75 1027.2506,63.125 Q1026.2663,62.625 1025.5788,61.5625 Q1024.8913,60.4844 1024.8913,59.2031 L1024.8913,58.0469 Q1024.8913,56.7188 1025.5006,55.5781 Q1026.1256,54.4219 1027.2194,53.8125 Q1028.3131,53.1875 1029.5475,53.1875 Q1030.2819,53.1875 1030.9225,53.3594 Q1031.5788,53.5156 1032.1256,53.875 Z " fill="#000000"/><text fill="#000000" font-family="sans-serif" font-size="14" lengthAdjust="spacing" textLength="62" x="1049.86" y="63.7285">GameWin</text><line style="stroke:#181818;stroke-width:0.5;" x1="982.61" x2="1146.61" y1="74" y2="74"/><text fill="#000000" font-family="sans-serif" font-size="14" lengthAdjust="spacing" textLength="117" x="987.61" y="92.5332">-JPanel mainPanel</text><text fill="#000000" font-family="sans-serif" font-size="14" lengthAdjust="spacing" textLength="153" x="987.61" y="110.1426">-ScorePanel scorePanel</text><text fill="#000000" font-family="sans-serif" font-size="14" lengthAdjust="spacing" textLength="154" x="987.61" y="127.752">-GamePanel gamePanel</text><line style="stroke:#181818;stroke-width:0.5;" x1="982.61" x2="1146.61" y1="134.8281" y2="134.8281"/><text fill="#000000" font-family="sans-serif" font-size="14" lengthAdjust="spacing" textLength="80" x="987.61" y="153.3613">+GameWin()</text><text fill="#000000" font-family="sans-serif" font-size="14" lengthAdjust="spacing" textLength="103" x="987.61" y="170.9707">+void addStyle()</text></g><!--MD5=[780f7b30e31d5e194a087423a919fad8]
class gameWin.GamePanel--><g id="elem_gameWin.GamePanel"><rect codeLine="107" fill="#F1F1F1" height="787.5938" id="gameWin.GamePanel" rx="2.5" ry="2.5" style="stroke:#181818;stroke-width:0.5;" width="277" x="749.11" y="269"/><ellipse cx="846.36" cy="285" fill="#ADD1B2" rx="11" ry="11" style="stroke:#181818;stroke-width:1.0;"/><path d="M849.1256,280.875 Q849.2819,280.6563 849.4694,280.5469 Q849.6569,280.4375 849.8756,280.4375 Q850.2506,280.4375 850.485,280.7031 Q850.7194,280.9531 850.7194,281.5625 L850.7194,283.0156 Q850.7194,283.625 850.485,283.8906 Q850.2506,284.1563 849.8756,284.1563 Q849.5319,284.1563 849.3288,283.9531 Q849.1256,283.7656 849.0163,283.25 Q848.9694,282.8906 848.7819,282.7031 Q848.4538,282.3281 847.8444,282.1094 Q847.235,281.8906 846.61,281.8906 Q845.8444,281.8906 845.2038,282.2188 Q844.5788,282.5469 844.0788,283.2969 Q843.5944,284.0469 843.5944,285.0781 L843.5944,286.1719 Q843.5944,287.4063 844.485,288.2344 Q845.3756,289.0469 846.9694,289.0469 Q847.9069,289.0469 848.5631,288.7969 Q848.9538,288.6406 849.3756,288.2031 Q849.6413,287.9375 849.7819,287.8594 Q849.9381,287.7813 850.1413,287.7813 Q850.4694,287.7813 850.7194,288.0469 Q850.985,288.2969 850.985,288.6406 Q850.985,288.9844 850.6413,289.3906 Q850.1413,289.9688 849.3444,290.2969 Q848.2663,290.75 846.9694,290.75 Q845.4538,290.75 844.2506,290.125 Q843.2663,289.625 842.5788,288.5625 Q841.8913,287.4844 841.8913,286.2031 L841.8913,285.0469 Q841.8913,283.7188 842.5006,282.5781 Q843.1256,281.4219 844.2194,280.8125 Q845.3131,280.1875 846.5475,280.1875 Q847.2819,280.1875 847.9225,280.3594 Q848.5788,280.5156 849.1256,280.875 Z " fill="#000000"/><text fill="#000000" font-family="sans-serif" font-size="14" lengthAdjust="spacing" textLength="74" x="866.86" y="290.7285">GamePanel</text><line style="stroke:#181818;stroke-width:0.5;" x1="750.11" x2="1025.11" y1="301" y2="301"/><text fill="#000000" font-family="sans-serif" font-size="14" lengthAdjust="spacing" text-decoration="underline" textLength="165" x="755.11" y="319.5332">+final int SCREEN_WIDTH</text><text fill="#000000" font-family="sans-serif" font-size="14" lengthAdjust="spacing" text-decoration="underline" textLength="171" x="755.11" y="337.1426">+final int SCREEN_HEIGHT</text><text fill="#000000" font-family="sans-serif" font-size="14" lengthAdjust="spacing" textLength="4" x="755.11" y="354.752"> </text><text fill="#000000" font-family="sans-serif" font-size="14" lengthAdjust="spacing" textLength="103" x="755.11" y="372.3613">-final int unitSize</text><text fill="#000000" font-family="sans-serif" font-size="14" lengthAdjust="spacing" textLength="120" x="755.11" y="389.9707">-final int gameUnits</text><text fill="#000000" font-family="sans-serif" font-size="14" lengthAdjust="spacing" textLength="88" x="755.11" y="407.5801">-final int delay</text><text fill="#000000" font-family="sans-serif" font-size="14" lengthAdjust="spacing" textLength="108" x="755.11" y="425.1895">-final int[] snakeX</text><text fill="#000000" font-family="sans-serif" font-size="14" lengthAdjust="spacing" textLength="109" x="755.11" y="442.7988">-final int[] snakeY</text><text fill="#000000" font-family="sans-serif" font-size="14" lengthAdjust="spacing" textLength="136" x="755.11" y="460.4082">-final String fontName</text><text fill="#000000" font-family="sans-serif" font-size="14" lengthAdjust="spacing" textLength="4" x="755.11" y="478.0176"> </text><text fill="#000000" font-family="sans-serif" font-size="14" lengthAdjust="spacing" textLength="67" x="755.11" y="495.627">-int appleX</text><text fill="#000000" font-family="sans-serif" font-size="14" lengthAdjust="spacing" textLength="68" x="755.11" y="513.2363">-int appleY</text><text fill="#000000" font-family="sans-serif" font-size="14" lengthAdjust="spacing" textLength="4" x="755.11" y="530.8457"> </text><text fill="#000000" font-family="sans-serif" font-size="14" lengthAdjust="spacing" textLength="88" x="755.11" y="548.4551">-int bodyParts</text><text fill="#000000" font-family="sans-serif" font-size="14" lengthAdjust="spacing" textLength="59" x="755.11" y="566.0645">-int score</text><text fill="#000000" font-family="sans-serif" font-size="14" lengthAdjust="spacing" textLength="86" x="755.11" y="583.6738">-int highscore</text><text fill="#000000" font-family="sans-serif" font-size="14" lengthAdjust="spacing" textLength="91" x="755.11" y="601.2832">-char direction</text><text fill="#000000" font-family="sans-serif" font-size="14" lengthAdjust="spacing" textLength="108" x="755.11" y="618.8926">-boolean running</text><text fill="#000000" font-family="sans-serif" font-size="14" lengthAdjust="spacing" textLength="107" x="755.11" y="636.502">-boolean paused</text><text fill="#000000" font-family="sans-serif" font-size="14" lengthAdjust="spacing" textLength="76" x="755.11" y="654.1113">-Timer timer</text><text fill="#000000" font-family="sans-serif" font-size="14" lengthAdjust="spacing" textLength="110" x="755.11" y="671.7207">-Random random</text><text fill="#000000" font-family="sans-serif" font-size="14" lengthAdjust="spacing" textLength="183" x="755.11" y="689.3301">-ScoreListener scoreListener</text><line style="stroke:#181818;stroke-width:0.5;" x1="750.11" x2="1025.11" y1="696.4063" y2="696.4063"/><text fill="#000000" font-family="sans-serif" font-size="14" lengthAdjust="spacing" textLength="265" x="755.11" y="714.9395">+GamePanel(int , int , int , ScoreListener )</text><text fill="#000000" font-family="sans-serif" font-size="14" lengthAdjust="spacing" textLength="111" x="755.11" y="732.5488">-void startGame()</text><text fill="#000000" font-family="sans-serif" font-size="14" lengthAdjust="spacing" textLength="110" x="755.11" y="750.1582">-void initialState()</text><text fill="#000000" font-family="sans-serif" font-size="14" lengthAdjust="spacing" textLength="126" x="755.11" y="767.7676">-void updateScore()</text><text fill="#000000" font-family="sans-serif" font-size="14" lengthAdjust="spacing" textLength="152" x="755.11" y="785.377">-void updateHighscore()</text><text fill="#000000" font-family="sans-serif" font-size="14" lengthAdjust="spacing" textLength="121" x="755.11" y="802.9863">-void spawnApple()</text><text fill="#000000" font-family="sans-serif" font-size="14" lengthAdjust="spacing" textLength="101" x="755.11" y="820.5957">-void eatApple()</text><text fill="#000000" font-family="sans-serif" font-size="14" lengthAdjust="spacing" textLength="79" x="755.11" y="838.2051">-void move()</text><text fill="#000000" font-family="sans-serif" font-size="14" lengthAdjust="spacing" textLength="142" x="755.11" y="855.8145">-void checkCollisions()</text><text fill="#000000" font-family="sans-serif" font-size="14" lengthAdjust="spacing" textLength="124" x="755.11" y="873.4238">-void togglePause()</text><text fill="#000000" font-family="sans-serif" font-size="14" lengthAdjust="spacing" textLength="122" x="755.11" y="891.0332">-void pauseGame()</text><text fill="#000000" font-family="sans-serif" font-size="14" lengthAdjust="spacing" textLength="115" x="755.11" y="908.6426">-void resetGame()</text><text fill="#000000" font-family="sans-serif" font-size="14" lengthAdjust="spacing" textLength="108" x="755.11" y="926.252">-void gotoMenu()</text><text fill="#000000" font-family="sans-serif" font-size="14" lengthAdjust="spacing" textLength="136" x="755.11" y="943.8613">-void draw(Graphics )</text><text fill="#000000" font-family="sans-serif" font-size="14" lengthAdjust="spacing" textLength="172" x="755.11" y="961.4707">-void gameOver(Graphics )</text><text fill="#000000" font-family="sans-serif" font-size="14" lengthAdjust="spacing" textLength="213" x="755.11" y="979.0801">#void paintComponent(Graphics )</text><text fill="#000000" font-family="sans-serif" font-size="14" lengthAdjust="spacing" textLength="152" x="755.11" y="996.6895">+void actionPerformed()</text><text fill="#000000" font-family="sans-serif" font-size="14" lengthAdjust="spacing" textLength="186" x="755.11" y="1014.2988">+void keyPressed(KeyEvent )</text><text fill="#000000" font-family="sans-serif" font-size="14" lengthAdjust="spacing" textLength="174" x="755.11" y="1031.9082">+void keyTyped(KeyEvent )</text><text fill="#000000" font-family="sans-serif" font-size="14" lengthAdjust="spacing" textLength="194" x="755.11" y="1049.5176">+void keyReleased(KeyEvent )</text></g><!--MD5=[5a94b7b569a504f344ae8a1341a38a08]
class gameWin.ScorePanel--><g id="elem_gameWin.ScorePanel"><rect codeLine="153" fill="#F1F1F1" height="118.4375" id="gameWin.ScorePanel" rx="2.5" ry="2.5" style="stroke:#181818;stroke-width:0.5;" width="160" x="1061.61" y="604"/><ellipse cx="1101.36" cy="620" fill="#ADD1B2" rx="11" ry="11" style="stroke:#181818;stroke-width:1.0;"/><path d="M1104.1256,615.875 Q1104.2819,615.6563 1104.4694,615.5469 Q1104.6569,615.4375 1104.8756,615.4375 Q1105.2506,615.4375 1105.485,615.7031 Q1105.7194,615.9531 1105.7194,616.5625 L1105.7194,618.0156 Q1105.7194,618.625 1105.485,618.8906 Q1105.2506,619.1563 1104.8756,619.1563 Q1104.5319,619.1563 1104.3288,618.9531 Q1104.1256,618.7656 1104.0163,618.25 Q1103.9694,617.8906 1103.7819,617.7031 Q1103.4538,617.3281 1102.8444,617.1094 Q1102.235,616.8906 1101.61,616.8906 Q1100.8444,616.8906 1100.2038,617.2188 Q1099.5788,617.5469 1099.0788,618.2969 Q1098.5944,619.0469 1098.5944,620.0781 L1098.5944,621.1719 Q1098.5944,622.4063 1099.485,623.2344 Q1100.3756,624.0469 1101.9694,624.0469 Q1102.9069,624.0469 1103.5631,623.7969 Q1103.9538,623.6406 1104.3756,623.2031 Q1104.6413,622.9375 1104.7819,622.8594 Q1104.9381,622.7813 1105.1413,622.7813 Q1105.4694,622.7813 1105.7194,623.0469 Q1105.985,623.2969 1105.985,623.6406 Q1105.985,623.9844 1105.6413,624.3906 Q1105.1413,624.9688 1104.3444,625.2969 Q1103.2663,625.75 1101.9694,625.75 Q1100.4538,625.75 1099.2506,625.125 Q1098.2663,624.625 1097.5788,623.5625 Q1096.8913,622.4844 1096.8913,621.2031 L1096.8913,620.0469 Q1096.8913,618.7188 1097.5006,617.5781 Q1098.1256,616.4219 1099.2194,615.8125 Q1100.3131,615.1875 1101.5475,615.1875 Q1102.2819,615.1875 1102.9225,615.3594 Q1103.5788,615.5156 1104.1256,615.875 Z " fill="#000000"/><text fill="#000000" font-family="sans-serif" font-size="14" lengthAdjust="spacing" textLength="73" x="1120.86" y="625.7285">ScorePanel</text><line style="stroke:#181818;stroke-width:0.5;" x1="1062.61" x2="1220.61" y1="636" y2="636"/><text fill="#000000" font-family="sans-serif" font-size="14" lengthAdjust="spacing" textLength="120" x="1067.61" y="654.5332">-JLabel scoreLabel</text><line style="stroke:#181818;stroke-width:0.5;" x1="1062.61" x2="1220.61" y1="661.6094" y2="661.6094"/><text fill="#000000" font-family="sans-serif" font-size="14" lengthAdjust="spacing" textLength="91" x="1067.61" y="680.1426">+ScorePanel()</text><text fill="#000000" font-family="sans-serif" font-size="14" lengthAdjust="spacing" textLength="148" x="1067.61" y="697.752">+void updateScore(int )</text><text fill="#000000" font-family="sans-serif" font-size="14" lengthAdjust="spacing" textLength="103" x="1067.61" y="715.3613">#void addStyle()</text></g><!--MD5=[8399d5f7e96f718898c246e7dcce0e07]
class gameWin.ScoreListener--><g id="elem_gameWin.ScoreListener"><rect codeLine="170" fill="#F1F1F1" height="65.6094" id="gameWin.ScoreListener" rx="2.5" ry="2.5" style="stroke:#181818;stroke-width:0.5;" width="160" x="933.61" y="1148"/><ellipse cx="966.61" cy="1164" fill="#B4A7E5" rx="11" ry="11" style="stroke:#181818;stroke-width:1.0;"/><path d="M967.5631,1160.6406 L967.5631,1167.2969 L969.2819,1167.2969 Q969.8913,1167.2969 970.1569,1167.5313 Q970.4225,1167.7656 970.4225,1168.1563 Q970.4225,1168.5313 970.1569,1168.7656 Q969.8913,1169 969.2819,1169 L964.1413,1169 Q963.5319,1169 963.2663,1168.7656 Q963.0006,1168.5313 963.0006,1168.1406 Q963.0006,1167.7656 963.2663,1167.5313 Q963.5319,1167.2969 964.1413,1167.2969 L965.86,1167.2969 L965.86,1160.6406 L964.1413,1160.6406 Q963.5319,1160.6406 963.2663,1160.4063 Q963.0006,1160.1719 963.0006,1159.7813 Q963.0006,1159.4063 963.2663,1159.1719 Q963.5319,1158.9375 964.1413,1158.9375 L969.2819,1158.9375 Q969.8913,1158.9375 970.1569,1159.1719 Q970.4225,1159.4063 970.4225,1159.7813 Q970.4225,1160.1719 970.1569,1160.4063 Q969.8913,1160.6406 969.2819,1160.6406 L967.5631,1160.6406 Z " fill="#000000"/><text fill="#000000" font-family="sans-serif" font-size="14" font-style="italic" lengthAdjust="spacing" textLength="88" x="984.61" y="1169.7285">ScoreListener</text><line style="stroke:#181818;stroke-width:0.5;" x1="934.61" x2="1092.61" y1="1180" y2="1180"/><line style="stroke:#181818;stroke-width:0.5;" x1="934.61" x2="1092.61" y1="1188" y2="1188"/><text fill="#000000" font-family="sans-serif" font-size="14" lengthAdjust="spacing" textLength="148" x="939.61" y="1206.5332">+void updateScore(int )</text></g><!--MD5=[46c05dfe24a0851e179497c4631d3ff2]
class java.lang.Exception--><g id="elem_java.lang.Exception"><rect codeLine="55" fill="#F1F1F1" height="48" id="java.lang.Exception" rx="2.5" ry="2.5" style="stroke:#181818;stroke-width:0.5;" width="93" x="599.11" y="639"/><ellipse cx="614.11" cy="655" fill="#ADD1B2" rx="11" ry="11" style="stroke:#181818;stroke-width:1.0;"/><path d="M616.8756,650.875 Q617.0319,650.6563 617.2194,650.5469 Q617.4069,650.4375 617.6256,650.4375 Q618.0006,650.4375 618.235,650.7031 Q618.4694,650.9531 618.4694,651.5625 L618.4694,653.0156 Q618.4694,653.625 618.235,653.8906 Q618.0006,654.1563 617.6256,654.1563 Q617.2819,654.1563 617.0788,653.9531 Q616.8756,653.7656 616.7663,653.25 Q616.7194,652.8906 616.5319,652.7031 Q616.2038,652.3281 615.5944,652.1094 Q614.985,651.8906 614.36,651.8906 Q613.5944,651.8906 612.9538,652.2188 Q612.3288,652.5469 611.8288,653.2969 Q611.3444,654.0469 611.3444,655.0781 L611.3444,656.1719 Q611.3444,657.4063 612.235,658.2344 Q613.1256,659.0469 614.7194,659.0469 Q615.6569,659.0469 616.3131,658.7969 Q616.7038,658.6406 617.1256,658.2031 Q617.3913,657.9375 617.5319,657.8594 Q617.6881,657.7813 617.8913,657.7813 Q618.2194,657.7813 618.4694,658.0469 Q618.735,658.2969 618.735,658.6406 Q618.735,658.9844 618.3913,659.3906 Q617.8913,659.9688 617.0944,660.2969 Q616.0163,660.75 614.7194,660.75 Q613.2038,660.75 612.0006,660.125 Q611.0163,659.625 610.3288,658.5625 Q609.6413,657.4844 609.6413,656.2031 L609.6413,655.0469 Q609.6413,653.7188 610.2506,652.5781 Q610.8756,651.4219 611.9694,650.8125 Q613.0631,650.1875 614.2975,650.1875 Q615.0319,650.1875 615.6725,650.3594 Q616.3288,650.5156 616.8756,650.875 Z " fill="#000000"/><text fill="#000000" font-family="sans-serif" font-size="14" lengthAdjust="spacing" textLength="61" x="628.11" y="660.7285">Exception</text><line style="stroke:#181818;stroke-width:0.5;" x1="600.11" x2="691.11" y1="671" y2="671"/><line style="stroke:#181818;stroke-width:0.5;" x1="600.11" x2="691.11" y1="679" y2="679"/></g><!--MD5=[2922d9ffc9d4bd295a88093b7403fd11]
class gameMenu.Menu--><g id="elem_gameMenu.Menu"><rect codeLine="62" fill="#F1F1F1" height="769.9844" id="gameMenu.Menu" rx="2.5" ry="2.5" style="stroke:#181818;stroke-width:0.5;" width="215" x="327.11" y="278"/><ellipse cx="412.86" cy="294" fill="#ADD1B2" rx="11" ry="11" style="stroke:#181818;stroke-width:1.0;"/><path d="M415.6256,289.875 Q415.7819,289.6563 415.9694,289.5469 Q416.1569,289.4375 416.3756,289.4375 Q416.7506,289.4375 416.985,289.7031 Q417.2194,289.9531 417.2194,290.5625 L417.2194,292.0156 Q417.2194,292.625 416.985,292.8906 Q416.7506,293.1563 416.3756,293.1563 Q416.0319,293.1563 415.8288,292.9531 Q415.6256,292.7656 415.5163,292.25 Q415.4694,291.8906 415.2819,291.7031 Q414.9538,291.3281 414.3444,291.1094 Q413.735,290.8906 413.11,290.8906 Q412.3444,290.8906 411.7038,291.2188 Q411.0788,291.5469 410.5788,292.2969 Q410.0944,293.0469 410.0944,294.0781 L410.0944,295.1719 Q410.0944,296.4063 410.985,297.2344 Q411.8756,298.0469 413.4694,298.0469 Q414.4069,298.0469 415.0631,297.7969 Q415.4538,297.6406 415.8756,297.2031 Q416.1413,296.9375 416.2819,296.8594 Q416.4381,296.7813 416.6413,296.7813 Q416.9694,296.7813 417.2194,297.0469 Q417.485,297.2969 417.485,297.6406 Q417.485,297.9844 417.1413,298.3906 Q416.6413,298.9688 415.8444,299.2969 Q414.7663,299.75 413.4694,299.75 Q411.9538,299.75 410.7506,299.125 Q409.7663,298.625 409.0788,297.5625 Q408.3913,296.4844 408.3913,295.2031 L408.3913,294.0469 Q408.3913,292.7188 409.0006,291.5781 Q409.6256,290.4219 410.7194,289.8125 Q411.8131,289.1875 413.0475,289.1875 Q413.7819,289.1875 414.4225,289.3594 Q415.0788,289.5156 415.6256,289.875 Z " fill="#000000"/><text fill="#000000" font-family="sans-serif" font-size="14" lengthAdjust="spacing" textLength="35" x="433.36" y="299.7285">Menu</text><line style="stroke:#181818;stroke-width:0.5;" x1="328.11" x2="541.11" y1="310" y2="310"/><text fill="#000000" font-family="sans-serif" font-size="14" lengthAdjust="spacing" text-decoration="underline" textLength="162" x="333.11" y="328.5332">-final int SCREEN_WIDTH</text><text fill="#000000" font-family="sans-serif" font-size="14" lengthAdjust="spacing" text-decoration="underline" textLength="168" x="333.11" y="346.1426">-final int SCREEN_HEIGHT</text><text fill="#000000" font-family="sans-serif" font-size="14" lengthAdjust="spacing" textLength="4" x="333.11" y="363.752"> </text><text fill="#000000" font-family="sans-serif" font-size="14" lengthAdjust="spacing" text-decoration="underline" textLength="99" x="333.11" y="381.3613">-final int SMALL</text><text fill="#000000" font-family="sans-serif" font-size="14" lengthAdjust="spacing" text-decoration="underline" textLength="107" x="333.11" y="398.9707">-final int MEDIUM</text><text fill="#000000" font-family="sans-serif" font-size="14" lengthAdjust="spacing" text-decoration="underline" textLength="101" x="333.11" y="416.5801">-final int LARGE</text><text fill="#000000" font-family="sans-serif" font-size="14" lengthAdjust="spacing" textLength="4" x="333.11" y="434.1895"> </text><text fill="#000000" font-family="sans-serif" font-size="14" lengthAdjust="spacing" text-decoration="underline" textLength="90" x="333.11" y="451.7988">-final int EASY</text><text fill="#000000" font-family="sans-serif" font-size="14" lengthAdjust="spacing" text-decoration="underline" textLength="112" x="333.11" y="469.4082">-final int NORMAL</text><text fill="#000000" font-family="sans-serif" font-size="14" lengthAdjust="spacing" text-decoration="underline" textLength="92" x="333.11" y="487.0176">-final int HARD</text><text fill="#000000" font-family="sans-serif" font-size="14" lengthAdjust="spacing" textLength="4" x="333.11" y="504.627"> </text><text fill="#000000" font-family="sans-serif" font-size="14" lengthAdjust="spacing" textLength="117" x="333.11" y="522.2363">-JPanel mainPanel</text><text fill="#000000" font-family="sans-serif" font-size="14" lengthAdjust="spacing" textLength="115" x="333.11" y="539.8457">-JPanel startPanel</text><text fill="#000000" font-family="sans-serif" font-size="14" lengthAdjust="spacing" textLength="128" x="333.11" y="557.4551">-JPanel choicePanel</text><text fill="#000000" font-family="sans-serif" font-size="14" lengthAdjust="spacing" textLength="114" x="333.11" y="575.0645">-JPanel mapPanel</text><text fill="#000000" font-family="sans-serif" font-size="14" lengthAdjust="spacing" textLength="138" x="333.11" y="592.6738">-JPanel difficultyPanel</text><text fill="#000000" font-family="sans-serif" font-size="14" lengthAdjust="spacing" textLength="111" x="333.11" y="610.2832">-JPanel endPanel</text><text fill="#000000" font-family="sans-serif" font-size="14" lengthAdjust="spacing" textLength="4" x="333.11" y="627.8926"> </text><text fill="#000000" font-family="sans-serif" font-size="14" lengthAdjust="spacing" textLength="157" x="333.11" y="645.502">-ButtonGroup mapGroup</text><text fill="#000000" font-family="sans-serif" font-size="14" lengthAdjust="spacing" textLength="181" x="333.11" y="663.1113">-ButtonGroup difficultyGroup</text><text fill="#000000" font-family="sans-serif" font-size="14" lengthAdjust="spacing" textLength="4" x="333.11" y="680.7207"> </text><text fill="#000000" font-family="sans-serif" font-size="14" lengthAdjust="spacing" textLength="186" x="333.11" y="698.3301">-JRadioButton mapSize_small</text><text fill="#000000" font-family="sans-serif" font-size="14" lengthAdjust="spacing" textLength="203" x="333.11" y="715.9395">-JRadioButton mapSize_medium</text><text fill="#000000" font-family="sans-serif" font-size="14" lengthAdjust="spacing" textLength="186" x="333.11" y="733.5488">-JRadioButton mapSize_large</text><text fill="#000000" font-family="sans-serif" font-size="14" lengthAdjust="spacing" textLength="4" x="333.11" y="751.1582"> </text><text fill="#000000" font-family="sans-serif" font-size="14" lengthAdjust="spacing" textLength="182" x="333.11" y="768.7676">-JRadioButton difficulty_easy</text><text fill="#000000" font-family="sans-serif" font-size="14" lengthAdjust="spacing" textLength="195" x="333.11" y="786.377">-JRadioButton difficulty_normal</text><text fill="#000000" font-family="sans-serif" font-size="14" lengthAdjust="spacing" textLength="181" x="333.11" y="803.9863">-JRadioButton difficulty_hard</text><text fill="#000000" font-family="sans-serif" font-size="14" lengthAdjust="spacing" textLength="4" x="333.11" y="821.5957"> </text><text fill="#000000" font-family="sans-serif" font-size="14" lengthAdjust="spacing" textLength="72" x="333.11" y="839.2051">-JLabel title</text><text fill="#000000" font-family="sans-serif" font-size="14" lengthAdjust="spacing" textLength="122" x="333.11" y="856.8145">-JLabel instructions</text><text fill="#000000" font-family="sans-serif" font-size="14" lengthAdjust="spacing" textLength="112" x="333.11" y="874.4238">-JLabel mapLabel</text><text fill="#000000" font-family="sans-serif" font-size="14" lengthAdjust="spacing" textLength="136" x="333.11" y="892.0332">-JLabel difficultyLabel</text><text fill="#000000" font-family="sans-serif" font-size="14" lengthAdjust="spacing" textLength="4" x="333.11" y="909.6426"> </text><text fill="#000000" font-family="sans-serif" font-size="14" lengthAdjust="spacing" textLength="174" x="333.11" y="927.252">-JButton resetHighScoreBtn</text><line style="stroke:#181818;stroke-width:0.5;" x1="328.11" x2="541.11" y1="934.3281" y2="934.3281"/><text fill="#000000" font-family="sans-serif" font-size="14" lengthAdjust="spacing" textLength="53" x="333.11" y="952.8613">+Menu()</text><text fill="#000000" font-family="sans-serif" font-size="14" lengthAdjust="spacing" textLength="167" x="333.11" y="970.4707">+Menu(int initialHighscore)</text><text fill="#000000" font-family="sans-serif" font-size="14" lengthAdjust="spacing" textLength="148" x="333.11" y="988.0801">+void addChooseMap()</text><text fill="#000000" font-family="sans-serif" font-size="14" lengthAdjust="spacing" textLength="174" x="333.11" y="1005.6895">+void addChooseDifficulty()</text><text fill="#000000" font-family="sans-serif" font-size="14" lengthAdjust="spacing" textLength="173" x="333.11" y="1023.2988">+void addBtnFunctionality()</text><text fill="#000000" font-family="sans-serif" font-size="14" lengthAdjust="spacing" textLength="103" x="333.11" y="1040.9082">+void addStyle()</text></g><!--MD5=[18a7562403221f513ca44e0f82c4c17a]
class javax.swing.JFrame--><g id="elem_javax.swing.JFrame"><rect codeLine="44" fill="#F1F1F1" height="48" id="javax.swing.JFrame" rx="2.5" ry="2.5" style="stroke:#181818;stroke-width:0.5;" width="79" x="183.11" y="1157"/><ellipse cx="198.11" cy="1173" fill="#ADD1B2" rx="11" ry="11" style="stroke:#181818;stroke-width:1.0;"/><path d="M200.8756,1168.875 Q201.0319,1168.6563 201.2194,1168.5469 Q201.4069,1168.4375 201.6256,1168.4375 Q202.0006,1168.4375 202.235,1168.7031 Q202.4694,1168.9531 202.4694,1169.5625 L202.4694,1171.0156 Q202.4694,1171.625 202.235,1171.8906 Q202.0006,1172.1563 201.6256,1172.1563 Q201.2819,1172.1563 201.0788,1171.9531 Q200.8756,1171.7656 200.7663,1171.25 Q200.7194,1170.8906 200.5319,1170.7031 Q200.2038,1170.3281 199.5944,1170.1094 Q198.985,1169.8906 198.36,1169.8906 Q197.5944,1169.8906 196.9538,1170.2188 Q196.3288,1170.5469 195.8288,1171.2969 Q195.3444,1172.0469 195.3444,1173.0781 L195.3444,1174.1719 Q195.3444,1175.4063 196.235,1176.2344 Q197.1256,1177.0469 198.7194,1177.0469 Q199.6569,1177.0469 200.3131,1176.7969 Q200.7038,1176.6406 201.1256,1176.2031 Q201.3913,1175.9375 201.5319,1175.8594 Q201.6881,1175.7813 201.8913,1175.7813 Q202.2194,1175.7813 202.4694,1176.0469 Q202.735,1176.2969 202.735,1176.6406 Q202.735,1176.9844 202.3913,1177.3906 Q201.8913,1177.9688 201.0944,1178.2969 Q200.0163,1178.75 198.7194,1178.75 Q197.2038,1178.75 196.0006,1178.125 Q195.0163,1177.625 194.3288,1176.5625 Q193.6413,1175.4844 193.6413,1174.2031 L193.6413,1173.0469 Q193.6413,1171.7188 194.2506,1170.5781 Q194.8756,1169.4219 195.9694,1168.8125 Q197.0631,1168.1875 198.2975,1168.1875 Q199.0319,1168.1875 199.6725,1168.3594 Q200.3288,1168.5156 200.8756,1168.875 Z " fill="#000000"/><text fill="#000000" font-family="sans-serif" font-size="14" lengthAdjust="spacing" textLength="47" x="212.11" y="1178.7285">JFrame</text><line style="stroke:#181818;stroke-width:0.5;" x1="184.11" x2="261.11" y1="1189" y2="1189"/><line style="stroke:#181818;stroke-width:0.5;" x1="184.11" x2="261.11" y1="1197" y2="1197"/></g><!--MD5=[56a185cb33bdc7c23303e5865f20a19b]
class javax.swing.JPanel--><g id="elem_javax.swing.JPanel"><rect codeLine="46" fill="#F1F1F1" height="48" id="javax.swing.JPanel" rx="2.5" ry="2.5" style="stroke:#181818;stroke-width:0.5;" width="74" x="297.61" y="1157"/><ellipse cx="312.61" cy="1173" fill="#ADD1B2" rx="11" ry="11" style="stroke:#181818;stroke-width:1.0;"/><path d="M315.3756,1168.875 Q315.5319,1168.6563 315.7194,1168.5469 Q315.9069,1168.4375 316.1256,1168.4375 Q316.5006,1168.4375 316.735,1168.7031 Q316.9694,1168.9531 316.9694,1169.5625 L316.9694,1171.0156 Q316.9694,1171.625 316.735,1171.8906 Q316.5006,1172.1563 316.1256,1172.1563 Q315.7819,1172.1563 315.5788,1171.9531 Q315.3756,1171.7656 315.2663,1171.25 Q315.2194,1170.8906 315.0319,1170.7031 Q314.7038,1170.3281 314.0944,1170.1094 Q313.485,1169.8906 312.86,1169.8906 Q312.0944,1169.8906 311.4538,1170.2188 Q310.8288,1170.5469 310.3288,1171.2969 Q309.8444,1172.0469 309.8444,1173.0781 L309.8444,1174.1719 Q309.8444,1175.4063 310.735,1176.2344 Q311.6256,1177.0469 313.2194,1177.0469 Q314.1569,1177.0469 314.8131,1176.7969 Q315.2038,1176.6406 315.6256,1176.2031 Q315.8913,1175.9375 316.0319,1175.8594 Q316.1881,1175.7813 316.3913,1175.7813 Q316.7194,1175.7813 316.9694,1176.0469 Q317.235,1176.2969 317.235,1176.6406 Q317.235,1176.9844 316.8913,1177.3906 Q316.3913,1177.9688 315.5944,1178.2969 Q314.5163,1178.75 313.2194,1178.75 Q311.7038,1178.75 310.5006,1178.125 Q309.5163,1177.625 308.8288,1176.5625 Q308.1413,1175.4844 308.1413,1174.2031 L308.1413,1173.0469 Q308.1413,1171.7188 308.7506,1170.5781 Q309.3756,1169.4219 310.4694,1168.8125 Q311.5631,1168.1875 312.7975,1168.1875 Q313.5319,1168.1875 314.1725,1168.3594 Q314.8288,1168.5156 315.3756,1168.875 Z " fill="#000000"/><text fill="#000000" font-family="sans-serif" font-size="14" lengthAdjust="spacing" textLength="42" x="326.61" y="1178.7285">JPanel</text><line style="stroke:#181818;stroke-width:0.5;" x1="298.61" x2="370.61" y1="1189" y2="1189"/><line style="stroke:#181818;stroke-width:0.5;" x1="298.61" x2="370.61" y1="1197" y2="1197"/></g><!--MD5=[c13749207e1e160b2790bec8d09e837f]
class javax.swing.JDialog--><g id="elem_javax.swing.JDialog"><rect codeLine="45" fill="#F1F1F1" height="48" id="javax.swing.JDialog" rx="2.5" ry="2.5" style="stroke:#181818;stroke-width:0.5;" width="78" x="69.61" y="1157"/><ellipse cx="84.61" cy="1173" fill="#ADD1B2" rx="11" ry="11" style="stroke:#181818;stroke-width:1.0;"/><path d="M87.3756,1168.875 Q87.5319,1168.6563 87.7194,1168.5469 Q87.9069,1168.4375 88.1256,1168.4375 Q88.5006,1168.4375 88.735,1168.7031 Q88.9694,1168.9531 88.9694,1169.5625 L88.9694,1171.0156 Q88.9694,1171.625 88.735,1171.8906 Q88.5006,1172.1563 88.1256,1172.1563 Q87.7819,1172.1563 87.5788,1171.9531 Q87.3756,1171.7656 87.2663,1171.25 Q87.2194,1170.8906 87.0319,1170.7031 Q86.7038,1170.3281 86.0944,1170.1094 Q85.485,1169.8906 84.86,1169.8906 Q84.0944,1169.8906 83.4538,1170.2188 Q82.8288,1170.5469 82.3288,1171.2969 Q81.8444,1172.0469 81.8444,1173.0781 L81.8444,1174.1719 Q81.8444,1175.4063 82.735,1176.2344 Q83.6256,1177.0469 85.2194,1177.0469 Q86.1569,1177.0469 86.8131,1176.7969 Q87.2038,1176.6406 87.6256,1176.2031 Q87.8913,1175.9375 88.0319,1175.8594 Q88.1881,1175.7813 88.3913,1175.7813 Q88.7194,1175.7813 88.9694,1176.0469 Q89.235,1176.2969 89.235,1176.6406 Q89.235,1176.9844 88.8913,1177.3906 Q88.3913,1177.9688 87.5944,1178.2969 Q86.5163,1178.75 85.2194,1178.75 Q83.7038,1178.75 82.5006,1178.125 Q81.5163,1177.625 80.8288,1176.5625 Q80.1413,1175.4844 80.1413,1174.2031 L80.1413,1173.0469 Q80.1413,1171.7188 80.7506,1170.5781 Q81.3756,1169.4219 82.4694,1168.8125 Q83.5631,1168.1875 84.7975,1168.1875 Q85.5319,1168.1875 86.1725,1168.3594 Q86.8288,1168.5156 87.3756,1168.875 Z " fill="#000000"/><text fill="#000000" font-family="sans-serif" font-size="14" lengthAdjust="spacing" textLength="46" x="98.61" y="1178.7285">JDialog</text><line style="stroke:#181818;stroke-width:0.5;" x1="70.61" x2="146.61" y1="1189" y2="1189"/><line style="stroke:#181818;stroke-width:0.5;" x1="70.61" x2="146.61" y1="1197" y2="1197"/></g><!--MD5=[3eb55d915ce4c988cc6fe2a782a0fcdf]
class java.awt.event.KeyListener--><g id="elem_java.awt.event.KeyListener"><rect codeLine="50" fill="#F1F1F1" height="48" id="java.awt.event.KeyListener" rx="2.5" ry="2.5" style="stroke:#181818;stroke-width:0.5;" width="107" x="428.11" y="1157"/><ellipse cx="443.11" cy="1173" fill="#B4A7E5" rx="11" ry="11" style="stroke:#181818;stroke-width:1.0;"/><path d="M444.0631,1169.6406 L444.0631,1176.2969 L445.7819,1176.2969 Q446.3913,1176.2969 446.6569,1176.5313 Q446.9225,1176.7656 446.9225,1177.1563 Q446.9225,1177.5313 446.6569,1177.7656 Q446.3913,1178 445.7819,1178 L440.6413,1178 Q440.0319,1178 439.7663,1177.7656 Q439.5006,1177.5313 439.5006,1177.1406 Q439.5006,1176.7656 439.7663,1176.5313 Q440.0319,1176.2969 440.6413,1176.2969 L442.36,1176.2969 L442.36,1169.6406 L440.6413,1169.6406 Q440.0319,1169.6406 439.7663,1169.4063 Q439.5006,1169.1719 439.5006,1168.7813 Q439.5006,1168.4063 439.7663,1168.1719 Q440.0319,1167.9375 440.6413,1167.9375 L445.7819,1167.9375 Q446.3913,1167.9375 446.6569,1168.1719 Q446.9225,1168.4063 446.9225,1168.7813 Q446.9225,1169.1719 446.6569,1169.4063 Q446.3913,1169.6406 445.7819,1169.6406 L444.0631,1169.6406 Z " fill="#000000"/><text fill="#000000" font-family="sans-serif" font-size="14" font-style="italic" lengthAdjust="spacing" textLength="75" x="457.11" y="1178.7285">KeyListener</text><line style="stroke:#181818;stroke-width:0.5;" x1="429.11" x2="534.11" y1="1189" y2="1189"/><line style="stroke:#181818;stroke-width:0.5;" x1="429.11" x2="534.11" y1="1197" y2="1197"/></g><!--MD5=[6631281fcee7fc541b441b6c950a0fa0]
class java.awt.event.ActionListener--><g id="elem_java.awt.event.ActionListener"><rect codeLine="51" fill="#F1F1F1" height="48" id="java.awt.event.ActionListener" rx="2.5" ry="2.5" style="stroke:#181818;stroke-width:0.5;" width="122" x="570.61" y="1157"/><ellipse cx="585.61" cy="1173" fill="#B4A7E5" rx="11" ry="11" style="stroke:#181818;stroke-width:1.0;"/><path d="M586.5631,1169.6406 L586.5631,1176.2969 L588.2819,1176.2969 Q588.8913,1176.2969 589.1569,1176.5313 Q589.4225,1176.7656 589.4225,1177.1563 Q589.4225,1177.5313 589.1569,1177.7656 Q588.8913,1178 588.2819,1178 L583.1413,1178 Q582.5319,1178 582.2663,1177.7656 Q582.0006,1177.5313 582.0006,1177.1406 Q582.0006,1176.7656 582.2663,1176.5313 Q582.5319,1176.2969 583.1413,1176.2969 L584.86,1176.2969 L584.86,1169.6406 L583.1413,1169.6406 Q582.5319,1169.6406 582.2663,1169.4063 Q582.0006,1169.1719 582.0006,1168.7813 Q582.0006,1168.4063 582.2663,1168.1719 Q582.5319,1167.9375 583.1413,1167.9375 L588.2819,1167.9375 Q588.8913,1167.9375 589.1569,1168.1719 Q589.4225,1168.4063 589.4225,1168.7813 Q589.4225,1169.1719 589.1569,1169.4063 Q588.8913,1169.6406 588.2819,1169.6406 L586.5631,1169.6406 Z " fill="#000000"/><text fill="#000000" font-family="sans-serif" font-size="14" font-style="italic" lengthAdjust="spacing" textLength="90" x="599.61" y="1178.7285">ActionListener</text><line style="stroke:#181818;stroke-width:0.5;" x1="571.61" x2="691.61" y1="1189" y2="1189"/><line style="stroke:#181818;stroke-width:0.5;" x1="571.61" x2="691.61" y1="1197" y2="1197"/></g><!--MD5=[51b67420a8083e59fe8f0485901bdd34]
class main.Main--><g id="elem_main.Main"><rect codeLine="58" fill="#F1F1F1" height="65.6094" id="main.Main" rx="2.5" ry="2.5" style="stroke:#181818;stroke-width:0.5;" width="135" x="175.11" y="77"/><ellipse cx="223.36" cy="93" fill="#ADD1B2" rx="11" ry="11" style="stroke:#181818;stroke-width:1.0;"/><path d="M226.1256,88.875 Q226.2819,88.6563 226.4694,88.5469 Q226.6569,88.4375 226.8756,88.4375 Q227.2506,88.4375 227.485,88.7031 Q227.7194,88.9531 227.7194,89.5625 L227.7194,91.0156 Q227.7194,91.625 227.485,91.8906 Q227.2506,92.1563 226.8756,92.1563 Q226.5319,92.1563 226.3288,91.9531 Q226.1256,91.7656 226.0163,91.25 Q225.9694,90.8906 225.7819,90.7031 Q225.4538,90.3281 224.8444,90.1094 Q224.235,89.8906 223.61,89.8906 Q222.8444,89.8906 222.2038,90.2188 Q221.5788,90.5469 221.0788,91.2969 Q220.5944,92.0469 220.5944,93.0781 L220.5944,94.1719 Q220.5944,95.4063 221.485,96.2344 Q222.3756,97.0469 223.9694,97.0469 Q224.9069,97.0469 225.5631,96.7969 Q225.9538,96.6406 226.3756,96.2031 Q226.6413,95.9375 226.7819,95.8594 Q226.9381,95.7813 227.1413,95.7813 Q227.4694,95.7813 227.7194,96.0469 Q227.985,96.2969 227.985,96.6406 Q227.985,96.9844 227.6413,97.3906 Q227.1413,97.9688 226.3444,98.2969 Q225.2663,98.75 223.9694,98.75 Q222.4538,98.75 221.2506,98.125 Q220.2663,97.625 219.5788,96.5625 Q218.8913,95.4844 218.8913,94.2031 L218.8913,93.0469 Q218.8913,91.7188 219.5006,90.5781 Q220.1256,89.4219 221.2194,88.8125 Q222.3131,88.1875 223.5475,88.1875 Q224.2819,88.1875 224.9225,88.3594 Q225.5788,88.5156 226.1256,88.875 Z " fill="#000000"/><text fill="#000000" font-family="sans-serif" font-size="14" lengthAdjust="spacing" textLength="30" x="243.86" y="98.7285">Main</text><line style="stroke:#181818;stroke-width:0.5;" x1="176.11" x2="309.11" y1="109" y2="109"/><line style="stroke:#181818;stroke-width:0.5;" x1="176.11" x2="309.11" y1="117" y2="117"/><text fill="#000000" font-family="sans-serif" font-size="14" lengthAdjust="spacing" textLength="123" x="181.11" y="135.5332">+void main(String[])</text></g><!--MD5=[576718ead48a6f7f51c1ebd7fae65c76]
link gameWin.IllegalUnitSizeException to java.lang.Exception--><g id="link_gameWin.IllegalUnitSizeException_java.lang.Exception"><path codeLine="4" d="M1244.6,134 C1224.08,149.43 1194.81,168.58 1165.61,178 C1116.44,193.86 739.19,172.55 701.61,208 C580.65,322.12 620.11,553.31 638.48,633.69 " fill="none" id="gameWin.IllegalUnitSizeException-to-java.lang.Exception" style="stroke:#181818;stroke-width:1.0;"/><polygon fill="#181818" points="639.66,638.77,641.5255,629.0994,638.5315,633.899,633.732,630.905,639.66,638.77" style="stroke:#181818;stroke-width:1.0;"/><text fill="#000000" font-family="sans-serif" font-size="13" lengthAdjust="spacing" textLength="46" x="702.61" y="222.4951">extends</text></g><!--MD5=[9a132fdb9c6e74fdb5a9f86a06b1db41]
link gameWin.IllegalDelayException to java.lang.Exception--><g id="link_gameWin.IllegalDelayException_java.lang.Exception"><path codeLine="5" d="M1453.69,134.01 C1434.62,149.44 1407.31,168.6 1379.61,178 C1280.92,211.49 1015.26,197.17 911.61,208 C891.62,210.09 747.22,220.19 732.61,234 C618.12,342.22 632.16,556.69 641.52,633.67 " fill="none" id="gameWin.IllegalDelayException-to-java.lang.Exception" style="stroke:#181818;stroke-width:1.0;"/><polygon fill="#181818" points="642.18,638.97,645.0461,629.5474,641.5668,634.0077,637.1065,630.5285,642.18,638.97" style="stroke:#181818;stroke-width:1.0;"/><text fill="#000000" font-family="sans-serif" font-size="13" lengthAdjust="spacing" textLength="46" x="912.61" y="222.4951">extends</text></g><!--MD5=[6fe756e4731fe4a6728b6246a747ac1c]
link gameWin.NoScoreListenerException to java.lang.Exception--><g id="link_gameWin.NoScoreListenerException_java.lang.Exception"><path codeLine="6" d="M748.44,118.65 C631.8,129.96 448.67,155.69 406.61,208 C401.6,214.23 401.1,220.2 406.61,226 C418.25,238.27 545.8,222.96 558.61,234 C678.07,336.98 660.84,555.18 650.18,633.37 " fill="none" id="gameWin.NoScoreListenerException-to-java.lang.Exception" style="stroke:#181818;stroke-width:1.0;"/><polygon fill="#181818" points="649.43,638.76,654.6525,630.4098,650.1311,633.8094,646.7315,629.288,649.43,638.76" style="stroke:#181818;stroke-width:1.0;"/><text fill="#000000" font-family="sans-serif" font-size="13" lengthAdjust="spacing" textLength="46" x="407.61" y="222.4951">extends</text></g><!--MD5=[cb10f99ff29d8a8a5b5feecba3bbfcf4]
link gameMenu.Menu to javax.swing.JFrame--><g id="link_gameMenu.Menu_javax.swing.JFrame"><path codeLine="8" d="M327.05,1013.03 C318.38,1033.24 309.23,1053.04 299.61,1072 C284.67,1101.46 262.3,1131.81 245.51,1152.81 " fill="none" id="gameMenu.Menu-to-javax.swing.JFrame" style="stroke:#181818;stroke-width:1.0;"/><polygon fill="#181818" points="242.23,1156.88,250.9899,1152.3784,245.3657,1152.9855,244.7586,1147.3613,242.23,1156.88" style="stroke:#181818;stroke-width:1.0;"/><text fill="#000000" font-family="sans-serif" font-size="13" lengthAdjust="spacing" textLength="46" x="291.61" y="1101.4951">extends</text></g><!--MD5=[2895c016f4db8c7ae4e4d11e617b2145]
link gameWin.GameWin to javax.swing.JFrame--><g id="link_gameWin.GameWin_javax.swing.JFrame"><path codeLine="9" d="M981.38,171.06 C975.85,173.69 970.24,176.04 964.61,178 C885.02,205.68 670.59,201.07 586.61,208 C493.25,215.71 470,218.72 376.61,226 C363.95,226.99 271.46,224.9 262.61,234 C6,497.84 167.65,1023.79 212.23,1151.55 " fill="none" id="gameWin.GameWin-to-javax.swing.JFrame" style="stroke:#181818;stroke-width:1.0;"/><polygon fill="#181818" points="214.02,1156.63,214.809,1146.8128,212.3619,1151.9129,207.2617,1149.4658,214.02,1156.63" style="stroke:#181818;stroke-width:1.0;"/><text fill="#000000" font-family="sans-serif" font-size="13" lengthAdjust="spacing" textLength="46" x="263.61" y="668.4951">extends</text></g><!--MD5=[a591f2fb426645d7026e8cc4bb2b5f47]
link gameWin.GamePanel to javax.swing.JPanel--><g id="link_gameWin.GamePanel_javax.swing.JPanel"><path codeLine="10" d="M748.77,1037.16 C736.48,1049.99 723.13,1061.72 708.61,1072 C672.24,1097.75 552.55,1079.53 508.61,1087 C464.61,1094.48 451.01,1092.03 411.61,1113 C392.31,1123.27 373.72,1139.21 359.65,1152.96 " fill="none" id="gameWin.GamePanel-to-javax.swing.JPanel" style="stroke:#181818;stroke-width:1.0;"/><polygon fill="#181818" points="355.8,1156.78,365.0136,1153.3002,359.3569,1153.266,359.3912,1147.6092,355.8,1156.78" style="stroke:#181818;stroke-width:1.0;"/><text fill="#000000" font-family="sans-serif" font-size="13" lengthAdjust="spacing" textLength="46" x="509.61" y="1101.4951">extends</text></g><!--MD5=[810acb8bbc2ad8e3780ecad4b07098bb]
link gameWin.ScorePanel to javax.swing.JPanel--><g id="link_gameWin.ScorePanel_javax.swing.JPanel"><path codeLine="11" d="M1146.52,722.26 C1150.54,812.06 1143.5,983.17 1043.61,1072 C1037.82,1077.15 774.34,1104.45 766.61,1105 C746.93,1106.39 430.01,1105.88 411.61,1113 C390.28,1121.26 370.89,1138.22 356.9,1153.01 " fill="none" id="gameWin.ScorePanel-to-javax.swing.JPanel" style="stroke:#181818;stroke-width:1.0;"/><polygon fill="#181818" points="353.46,1156.71,362.5176,1152.8421,356.8644,1153.0481,356.6585,1147.395,353.46,1156.71" style="stroke:#181818;stroke-width:1.0;"/><text fill="#000000" font-family="sans-serif" font-size="13" lengthAdjust="spacing" textLength="46" x="930.61" y="1101.4951">extends</text></g><!--MD5=[ef969c8610c3301a6ef1f580b2afaabb]
link gameWin.GamePanel to java.awt.event.KeyListener--><g id="link_gameWin.GamePanel_java.awt.event.KeyListener"><path codeLine="13" d="M749.09,1034.7 C736.71,1048.34 723.25,1060.9 708.61,1072 C670.7,1100.76 647.86,1072.29 602.61,1087 C579.16,1094.62 573.69,1098.7 553.61,1113 C541.22,1121.82 528.74,1132.61 517.73,1142.93 " fill="none" id="gameWin.GamePanel-to-java.awt.event.KeyListener" style="stroke:#181818;stroke-width:1.0;"/><polygon fill="none" points="522.53,1148.03,503.31,1156.96,512.77,1137.99,522.53,1148.03" style="stroke:#181818;stroke-width:1.0;"/><text fill="#000000" font-family="sans-serif" font-size="13" lengthAdjust="spacing" textLength="67" x="603.61" y="1101.4951">implements</text></g><!--MD5=[2ef640dc506f9503daac495a91a7cf1c]
link gameWin.GamePanel to java.awt.event.ActionListener--><g id="link_gameWin.GamePanel_java.awt.event.ActionListener"><path codeLine="14" d="M749.11,1006.22 C736.36,1029.01 722.85,1051.16 708.61,1072 C703.29,1079.78 699.59,1079.71 693.61,1087 C680.06,1103.53 666.69,1123.05 655.86,1139.94 " fill="none" id="gameWin.GamePanel-to-java.awt.event.ActionListener" style="stroke:#181818;stroke-width:1.0;"/><polygon fill="none" points="661.75,1143.71,645.2,1156.95,649.88,1136.28,661.75,1143.71" style="stroke:#181818;stroke-width:1.0;"/><text fill="#000000" font-family="sans-serif" font-size="13" lengthAdjust="spacing" textLength="67" x="694.61" y="1101.4951">implements</text></g><!--MD5=[3b88882e90cbff9efa39da4de4b4879d]
link gameWin.ScorePanel to gameWin.ScoreListener--><g id="link_gameWin.ScorePanel_gameWin.ScoreListener"><path codeLine="15" d="M1132.15,722.28 C1117.58,807.5 1086.82,970.56 1044.61,1105 C1042.11,1112.98 1039.1,1121.29 1035.95,1129.35 " fill="none" id="gameWin.ScorePanel-to-gameWin.ScoreListener" style="stroke:#181818;stroke-width:1.0;"/><polygon fill="none" points="1042.37,1132.13,1028.3,1147.97,1029.42,1126.81,1042.37,1132.13" style="stroke:#181818;stroke-width:1.0;"/><text fill="#000000" font-family="sans-serif" font-size="13" lengthAdjust="spacing" textLength="67" x="1048.61" y="1101.4951">implements</text></g><!--MD5=[9766d0ad3eb838ab1d0f347e516ae0fd]
link gameWin.GameWin to gameWin.ScorePanel--><g id="link_gameWin.GameWin_gameWin.ScorePanel"><path codeLine="17" d="M1073.97,178.01 C1088.6,282.63 1116.71,483.85 1131.68,590.92 " fill="none" id="gameWin.GameWin-to-gameWin.ScorePanel" style="stroke:#181818;stroke-width:1.0;"/><polygon fill="#181818" points="1133.48,603.81,1136.6115,597.3143,1131.8198,591.9254,1128.6884,598.4211,1133.48,603.81" style="stroke:#181818;stroke-width:1.0;"/><text fill="#000000" font-family="sans-serif" font-size="13" lengthAdjust="spacing" textLength="95" x="1079.61" y="222.4951">child-component</text></g><!--MD5=[64408a9699ed6efcf937309965009f0d]
link gameWin.GameWin to gameWin.GamePanel--><g id="link_gameWin.GameWin_gameWin.GamePanel"><path codeLine="18" d="M993.05,178.07 C985.64,187.54 978.89,197.61 973.61,208 C965.67,223.61 958.47,239.86 951.92,256.52 " fill="none" id="gameWin.GameWin-to-gameWin.GamePanel" style="stroke:#181818;stroke-width:1.0;"/><polygon fill="#181818" points="947.27,268.72,953.1447,264.5382,951.5441,257.507,945.6694,261.6888,947.27,268.72" style="stroke:#181818;stroke-width:1.0;"/><text fill="#000000" font-family="sans-serif" font-size="13" lengthAdjust="spacing" textLength="95" x="974.61" y="222.4951">child-component</text></g><!--MD5=[78c7490fcdc301269288f19181f66504]
reverse link gameWin.GameWin to gameMenu.Menu--><g id="link_gameWin.GameWin_gameMenu.Menu"><path codeLine="20" d="M969.34,176.23 C967.77,176.85 966.19,177.44 964.61,178 C883.73,206.62 638.4,168.82 582.61,234 C567.72,251.4 554.3,270.37 542.21,290.35 " fill="none" id="gameWin.GameWin-backto-gameMenu.Menu" style="stroke:#181818;stroke-width:1.0;"/><polygon fill="#181818" points="981.35,170.99,974.2509,169.724,970.3519,175.7901,977.451,177.0561,981.35,170.99" style="stroke:#181818;stroke-width:1.0;"/><text fill="#000000" font-family="sans-serif" font-size="13" lengthAdjust="spacing" textLength="43" x="622.61" y="222.4951">imports</text></g><!--MD5=[be54428c90cc56c654bd539c22a6c7eb]
link gameWin.GamePanel to gameWin.ScoreListener--><g id="link_gameWin.GamePanel_gameWin.ScoreListener"><path codeLine="21" d="M983.59,1057.06 C990.97,1087.3 997.52,1114.1 1002.59,1134.89 " fill="none" id="gameWin.GamePanel-to-gameWin.ScoreListener" style="stroke:#181818;stroke-width:1.0;"/><polygon fill="#181818" points="1005.71,1147.66,1008.1715,1140.882,1002.8617,1136.0029,1000.4001,1142.7809,1005.71,1147.66" style="stroke:#181818;stroke-width:1.0;"/><text fill="#000000" font-family="sans-serif" font-size="13" lengthAdjust="spacing" textLength="43" x="992.61" y="1101.4951">imports</text></g><!--MD5=[12ac33e131ae76f8c18c4e533659de15]
link main.Main to gameMenu.Menu--><g id="link_main.Main_gameMenu.Menu"><path codeLine="22" d="M231.13,143 C224.21,168.56 220.07,203.69 239.61,226 C257.33,246.24 279.01,216.69 299.61,234 C311.73,244.18 322.77,255.44 332.83,267.55 " fill="none" id="main.Main-to-gameMenu.Menu" style="stroke:#181818;stroke-width:1.0;"/><polygon fill="#181818" points="341.06,277.91,340.4624,270.7237,333.5991,268.5113,334.1967,275.6976,341.06,277.91" style="stroke:#181818;stroke-width:1.0;"/><text fill="#000000" font-family="sans-serif" font-size="13" lengthAdjust="spacing" textLength="43" x="240.61" y="222.4951">imports</text></g><!--MD5=[30df653e3d66192acfae5ebe75e5b738]
@startuml gameClassDiagram

    skinparam classAttributeIconSize 0

    gameWin.IllegalUnitSizeException - -> java.lang.Exception : extends
    gameWin.IllegalDelayException - -> java.lang.Exception : extends
    gameWin.NoScoreListenerException - -> java.lang.Exception : extends

    gameMenu.Menu - -> javax.swing.JFrame : extends
    gameWin.GameWin - -> javax.swing.JFrame : extends
    gameWin.GamePanel - -> javax.swing.JPanel : extends
    gameWin.ScorePanel - -> javax.swing.JPanel : extends

    gameWin.GamePanel - -|> java.awt.event.KeyListener : implements
    gameWin.GamePanel - -|> java.awt.event.ActionListener : implements
    gameWin.ScorePanel - -|> gameWin.ScoreListener : implements

    gameWin.GameWin - -* gameWin.ScorePanel : child-component
    gameWin.GameWin - -* gameWin.GamePanel : child-component

    gameMenu.Menu -left-* gameWin.GameWin : imports
    gameWin.GamePanel - -* gameWin.ScoreListener : imports
    main.Main - -* gameMenu.Menu : imports

    package main {
        class Main
    }

    package gameMenu {
        class gameMenu.Menu
    }

    package gameWin {
        class gameWin.IllegalUnitSizeException
        class gameWin.IllegalDelayException
        class gameWin.NoScoreListenerException
        class gameWin.GameWin
        class gameWin.GamePanel
        class gameWin.ScorePanel
        interface gameWin.ScoreListener

    }

    package javax.swing {
        class javax.swing.JFrame
        class javax.swing.JDialog
        class javax.swing.JPanel
    }

    package java.awt.event {
        interface java.awt.event.KeyListener
        interface java.awt.event.ActionListener
    }

    package java.lang {
        class Exception
    }

    class main.Main {
        +void main(String[])
    }

    class gameMenu.Menu {
        -final int {static} SCREEN_WIDTH
        -final int {static} SCREEN_HEIGHT
        
        -final int {static} SMALL
        -final int {static} MEDIUM
        -final int {static} LARGE
        
        -final int {static} EASY
        -final int {static} NORMAL
        -final int {static} HARD

        -JPanel mainPanel
        -JPanel startPanel
        -JPanel choicePanel
        -JPanel mapPanel
        -JPanel difficultyPanel
        -JPanel endPanel

        -ButtonGroup mapGroup
        -ButtonGroup difficultyGroup

        -JRadioButton mapSize_small
        -JRadioButton mapSize_medium
        -JRadioButton mapSize_large

        -JRadioButton difficulty_easy
        -JRadioButton difficulty_normal
        -JRadioButton difficulty_hard

        -JLabel title
        -JLabel instructions
        -JLabel mapLabel
        -JLabel difficultyLabel

        -JButton resetHighScoreBtn

        +Menu()
        +Menu(int initialHighscore)
        +void addChooseMap()
        +void addChooseDifficulty()
        +void addBtnFunctionality()
        +void addStyle()
    }

    class gameWin.GamePanel {
        +final int {static} SCREEN_WIDTH
        +final int {static} SCREEN_HEIGHT

        -final int unitSize
        -final int gameUnits
        -final int delay
        -final int[] snakeX
        -final int[] snakeY
        -final String fontName

        -int appleX
        -int appleY
        
        -int bodyParts
        -int score
        -int highscore
        -char direction
        -boolean running
        -boolean paused
        -Timer timer
        -Random random
        -ScoreListener scoreListener

        +GamePanel(int , int , int , ScoreListener )
        -void startGame()
        -void initialState()
        -void updateScore()
        -void updateHighscore()
        -void spawnApple()
        -void eatApple()
        -void move()
        -void checkCollisions()
        -void togglePause()
        -void pauseGame()
        -void resetGame()
        -void gotoMenu()
        -void draw(Graphics )
        -void gameOver(Graphics )
        #void paintComponent(Graphics )
        +void actionPerformed()
        +void keyPressed(KeyEvent )
        +void keyTyped(KeyEvent )
        +void keyReleased(KeyEvent )
    }

    class gameWin.ScorePanel {
        -JLabel scoreLabel
        
        +ScorePanel()
        +void updateScore(int )
        #void addStyle()
    }

    class gameWin.GameWin {
        -JPanel mainPanel
        -ScorePanel scorePanel
        -GamePanel gamePanel

        +GameWin()
        +void addStyle()
    }

    interface gameWin.ScoreListener {
        +void updateScore(int )
    }

@enduml

PlantUML version 1.2022.7(Mon Aug 22 22:01:30 PKT 2022)
(GPL source distribution)
Java Runtime: OpenJDK Runtime Environment
JVM: OpenJDK 64-Bit Server VM
Default Encoding: UTF-8
Language: en
Country: US
--></g></svg>