<?xml version="1.0" encoding="UTF-8" standalone="no"?><svg xmlns="http://www.w3.org/2000/svg" xmlns:xlink="http://www.w3.org/1999/xlink" contentStyleType="text/css" height="65px" preserveAspectRatio="none" style="width:382px;height:65px;background:#FFFFFF;" version="1.1" viewBox="0 0 382 65" width="382px" zoomAndPan="magnify"><defs/><g><rect fill="#F1F1F1" height="21.6094" rx="5" ry="5" style="stroke:#F1F1F1;stroke-width:1.5;" width="98" x="10" y="20.5"/><text fill="#000000" font-family="sans-serif" font-size="14" font-weight="bold" lengthAdjust="spacing" textLength="66" x="15" y="37.0332">GameWin</text><text fill="#000000" font-family="sans-serif" font-size="14" lengthAdjust="spacing" textLength="12" x="91" y="37.0332">   </text><line style="stroke:#000000;stroke-width:1.0;" x1="86" x2="86" y1="20.5" y2="42.1094"/><rect fill="none" height="21.6094" rx="5" ry="5" style="stroke:#000000;stroke-width:1.5;" width="98" x="10" y="20.5"/><rect fill="#F1F1F1" height="21.6094" rx="5" ry="5" style="stroke:#F1F1F1;stroke-width:1.5;" width="104" x="145" y="20.5"/><text fill="#000000" font-family="sans-serif" font-size="14" font-weight="bold" lengthAdjust="spacing" textLength="72" x="150" y="37.0332">mainPanel</text><text fill="#000000" font-family="sans-serif" font-size="14" lengthAdjust="spacing" textLength="12" x="232" y="37.0332">   </text><line style="stroke:#000000;stroke-width:1.0;" x1="227" x2="227" y1="20.5" y2="42.1094"/><rect fill="none" height="21.6094" rx="5" ry="5" style="stroke:#000000;stroke-width:1.5;" width="104" x="145" y="20.5"/><rect fill="#F1F1F1" height="43.2188" rx="5" ry="5" style="stroke:#F1F1F1;stroke-width:1.5;" width="84" x="286" y="10"/><text fill="#000000" font-family="sans-serif" font-size="14" lengthAdjust="spacing" textLength="73" x="291" y="26.5332">ScorePanel</text><line style="stroke:#000000;stroke-width:1.0;" x1="286" x2="370" y1="31.6094" y2="31.6094"/><text fill="#000000" font-family="sans-serif" font-size="14" lengthAdjust="spacing" textLength="74" x="291" y="48.1426">GamePanel</text><rect fill="none" height="43.2188" rx="5" ry="5" style="stroke:#000000;stroke-width:1.5;" width="84" x="286" y="10"/><path d="M237,31.5 L250,31.5 C259.3427,31.5 269.319,31.5 278.8977,31.5 " fill="none" style="stroke:#000000;stroke-width:1.0;stroke-dasharray:3.0,3.0;"/><path d="M278.8977,34.5308 L281.1708,31.5 L278.8977,28.4692 L286.4748,31.5 L278.8977,34.5308 " fill="#000000" style="stroke:#000000;stroke-width:1.0;"/><ellipse cx="237" cy="31.5" fill="#000000" rx="3" ry="3" style="stroke:#000000;stroke-width:1.0;"/><path d="M96,31.5 L109,31.5 C118.2297,31.5 128.007,31.5 137.5522,31.5 " fill="none" style="stroke:#000000;stroke-width:1.0;stroke-dasharray:3.0,3.0;"/><path d="M137.5522,34.5361 L139.8293,31.5 L137.5522,28.4639 L145.1425,31.5 L137.5522,34.5361 " fill="#000000" style="stroke:#000000;stroke-width:1.0;"/><ellipse cx="96" cy="31.5" fill="#000000" rx="3" ry="3" style="stroke:#000000;stroke-width:1.0;"/><!--MD5=[8ef754833e07d0dd2396fe7dca3dc341]
@startyaml gameUI

    GameWin:
        mainPanel:
            - ScorePanel
            - GamePanel

@endyaml

PlantUML version 1.2022.7(Mon Aug 22 22:01:30 PKT 2022)
(GPL source distribution)
Java Runtime: OpenJDK Runtime Environment
JVM: OpenJDK 64-Bit Server VM
Default Encoding: UTF-8
Language: en
Country: US
--></g></svg>