<?xml version="1.0" encoding="UTF-8" standalone="no"?><svg xmlns="http://www.w3.org/2000/svg" xmlns:xlink="http://www.w3.org/1999/xlink" contentStyleType="text/css" height="189px" preserveAspectRatio="none" style="width:1139px;height:189px;background:#FFFFFF;" version="1.1" viewBox="0 0 1139 189" width="1139px" zoomAndPan="magnify"><defs/><g><rect fill="#F1F1F1" height="21.6094" rx="5" ry="5" style="stroke:#F1F1F1;stroke-width:1.5;" width="72" x="10" y="82.5"/><text fill="#000000" font-family="sans-serif" font-size="14" font-weight="bold" lengthAdjust="spacing" textLength="40" x="15" y="99.0332">Menu</text><text fill="#000000" font-family="sans-serif" font-size="14" lengthAdjust="spacing" textLength="12" x="65" y="99.0332">   </text><line style="stroke:#000000;stroke-width:1.0;" x1="60" x2="60" y1="82.5" y2="104.1094"/><rect fill="none" height="21.6094" rx="5" ry="5" style="stroke:#000000;stroke-width:1.5;" width="72" x="10" y="82.5"/><rect fill="#F1F1F1" height="21.6094" rx="5" ry="5" style="stroke:#F1F1F1;stroke-width:1.5;" width="104" x="119" y="82.5"/><text fill="#000000" font-family="sans-serif" font-size="14" font-weight="bold" lengthAdjust="spacing" textLength="72" x="124" y="99.0332">mainPanel</text><text fill="#000000" font-family="sans-serif" font-size="14" lengthAdjust="spacing" textLength="12" x="206" y="99.0332">   </text><line style="stroke:#000000;stroke-width:1.0;" x1="201" x2="201" y1="82.5" y2="104.1094"/><rect fill="none" height="21.6094" rx="5" ry="5" style="stroke:#000000;stroke-width:1.5;" width="104" x="119" y="82.5"/><rect fill="#F1F1F1" height="64.8281" rx="5" ry="5" style="stroke:#F1F1F1;stroke-width:1.5;" width="118" x="260" y="61"/><text fill="#000000" font-family="sans-serif" font-size="14" font-weight="bold" lengthAdjust="spacing" textLength="71" x="265" y="77.5332">startPanel</text><text fill="#000000" font-family="sans-serif" font-size="14" lengthAdjust="spacing" textLength="12" x="361" y="77.5332">   </text><line style="stroke:#000000;stroke-width:1.0;" x1="356" x2="356" y1="61" y2="82.6094"/><line style="stroke:#000000;stroke-width:1.0;" x1="260" x2="378" y1="82.6094" y2="82.6094"/><text fill="#000000" font-family="sans-serif" font-size="14" font-weight="bold" lengthAdjust="spacing" textLength="86" x="265" y="99.1426">choicePanel</text><text fill="#000000" font-family="sans-serif" font-size="14" lengthAdjust="spacing" textLength="12" x="361" y="99.1426">   </text><line style="stroke:#000000;stroke-width:1.0;" x1="356" x2="356" y1="82.6094" y2="104.2188"/><line style="stroke:#000000;stroke-width:1.0;" x1="260" x2="378" y1="104.2188" y2="104.2188"/><text fill="#000000" font-family="sans-serif" font-size="14" font-weight="bold" lengthAdjust="spacing" textLength="66" x="265" y="120.752">endPanel</text><text fill="#000000" font-family="sans-serif" font-size="14" lengthAdjust="spacing" textLength="12" x="361" y="120.752">   </text><line style="stroke:#000000;stroke-width:1.0;" x1="356" x2="356" y1="104.2188" y2="125.8281"/><rect fill="none" height="64.8281" rx="5" ry="5" style="stroke:#000000;stroke-width:1.5;" width="118" x="260" y="61"/><rect fill="#F1F1F1" height="43.2188" rx="5" ry="5" style="stroke:#F1F1F1;stroke-width:1.5;" width="218" x="415" y="10"/><text fill="#000000" font-family="sans-serif" font-size="14" font-weight="bold" lengthAdjust="spacing" textLength="27" x="420" y="26.5332">title</text><text fill="#000000" font-family="sans-serif" font-size="14" lengthAdjust="spacing" textLength="69" x="514" y="26.5332">Game Title</text><line style="stroke:#000000;stroke-width:1.0;" x1="509" x2="509" y1="10" y2="31.6094"/><line style="stroke:#000000;stroke-width:1.0;" x1="415" x2="633" y1="31.6094" y2="31.6094"/><text fill="#000000" font-family="sans-serif" font-size="14" font-weight="bold" lengthAdjust="spacing" textLength="84" x="420" y="48.1426">instructions</text><text fill="#000000" font-family="sans-serif" font-size="14" lengthAdjust="spacing" textLength="114" x="514" y="48.1426">Game Instructions</text><line style="stroke:#000000;stroke-width:1.0;" x1="509" x2="509" y1="31.6094" y2="53.2188"/><rect fill="none" height="43.2188" rx="5" ry="5" style="stroke:#000000;stroke-width:1.5;" width="218" x="415" y="10"/><rect fill="#F1F1F1" height="43.2188" rx="5" ry="5" style="stroke:#F1F1F1;stroke-width:1.5;" width="131" x="458.5" y="71"/><text fill="#000000" font-family="sans-serif" font-size="14" font-weight="bold" lengthAdjust="spacing" textLength="68" x="463.5" y="87.5332">mapPanel</text><text fill="#000000" font-family="sans-serif" font-size="14" lengthAdjust="spacing" textLength="12" x="572.5" y="87.5332">   </text><line style="stroke:#000000;stroke-width:1.0;" x1="567.5" x2="567.5" y1="71" y2="92.6094"/><line style="stroke:#000000;stroke-width:1.0;" x1="458.5" x2="589.5" y1="92.6094" y2="92.6094"/><text fill="#000000" font-family="sans-serif" font-size="14" font-weight="bold" lengthAdjust="spacing" textLength="99" x="463.5" y="109.1426">difficultyPanel</text><text fill="#000000" font-family="sans-serif" font-size="14" lengthAdjust="spacing" textLength="12" x="572.5" y="109.1426">   </text><line style="stroke:#000000;stroke-width:1.0;" x1="567.5" x2="567.5" y1="92.6094" y2="114.2188"/><rect fill="none" height="43.2188" rx="5" ry="5" style="stroke:#000000;stroke-width:1.5;" width="131" x="458.5" y="71"/><rect fill="#F1F1F1" height="43.2188" rx="5" ry="5" style="stroke:#F1F1F1;stroke-width:1.5;" width="203" x="683.5" y="35"/><text fill="#000000" font-family="sans-serif" font-size="14" font-weight="bold" lengthAdjust="spacing" textLength="67" x="688.5" y="51.5332">mapLabel</text><text fill="#000000" font-family="sans-serif" font-size="14" lengthAdjust="spacing" textLength="110" x="771.5" y="51.5332">Choose Map Size</text><line style="stroke:#000000;stroke-width:1.0;" x1="766.5" x2="766.5" y1="35" y2="56.6094"/><line style="stroke:#000000;stroke-width:1.0;" x1="683.5" x2="886.5" y1="56.6094" y2="56.6094"/><text fill="#000000" font-family="sans-serif" font-size="14" font-weight="bold" lengthAdjust="spacing" textLength="73" x="688.5" y="73.1426">mapGroup</text><text fill="#000000" font-family="sans-serif" font-size="14" lengthAdjust="spacing" textLength="12" x="771.5" y="73.1426">   </text><line style="stroke:#000000;stroke-width:1.0;" x1="766.5" x2="766.5" y1="56.6094" y2="78.2188"/><rect fill="none" height="43.2188" rx="5" ry="5" style="stroke:#000000;stroke-width:1.5;" width="203" x="683.5" y="35"/><rect fill="#F1F1F1" height="64.8281" rx="5" ry="5" style="stroke:#F1F1F1;stroke-width:1.5;" width="190" x="937" y="30"/><text fill="#000000" font-family="sans-serif" font-size="14" font-weight="bold" lengthAdjust="spacing" textLength="102" x="942" y="46.5332">mapSize_small</text><text fill="#000000" font-family="sans-serif" font-size="14" lengthAdjust="spacing" textLength="34" x="1073" y="46.5332">Small</text><line style="stroke:#000000;stroke-width:1.0;" x1="1068" x2="1068" y1="30" y2="51.6094"/><line style="stroke:#000000;stroke-width:1.0;" x1="937" x2="1127" y1="51.6094" y2="51.6094"/><text fill="#000000" font-family="sans-serif" font-size="14" font-weight="bold" lengthAdjust="spacing" textLength="121" x="942" y="68.1426">mapSize_medium</text><text fill="#000000" font-family="sans-serif" font-size="14" lengthAdjust="spacing" textLength="49" x="1073" y="68.1426">Medium</text><line style="stroke:#000000;stroke-width:1.0;" x1="1068" x2="1068" y1="51.6094" y2="73.2188"/><line style="stroke:#000000;stroke-width:1.0;" x1="937" x2="1127" y1="73.2188" y2="73.2188"/><text fill="#000000" font-family="sans-serif" font-size="14" font-weight="bold" lengthAdjust="spacing" textLength="102" x="942" y="89.752">mapSize_large</text><text fill="#000000" font-family="sans-serif" font-size="14" lengthAdjust="spacing" textLength="37" x="1073" y="89.752">Large</text><line style="stroke:#000000;stroke-width:1.0;" x1="1068" x2="1068" y1="73.2188" y2="94.8281"/><rect fill="none" height="64.8281" rx="5" ry="5" style="stroke:#000000;stroke-width:1.5;" width="190" x="937" y="30"/><rect fill="#F1F1F1" height="43.2188" rx="5" ry="5" style="stroke:#F1F1F1;stroke-width:1.5;" width="230" x="670" y="107"/><text fill="#000000" font-family="sans-serif" font-size="14" font-weight="bold" lengthAdjust="spacing" textLength="98" x="675" y="123.5332">difficultyLabel</text><text fill="#000000" font-family="sans-serif" font-size="14" lengthAdjust="spacing" textLength="106" x="789" y="123.5332">Choose Difficulty</text><line style="stroke:#000000;stroke-width:1.0;" x1="784" x2="784" y1="107" y2="128.6094"/><line style="stroke:#000000;stroke-width:1.0;" x1="670" x2="900" y1="128.6094" y2="128.6094"/><text fill="#000000" font-family="sans-serif" font-size="14" font-weight="bold" lengthAdjust="spacing" textLength="104" x="675" y="145.1426">difficultyGroup</text><text fill="#000000" font-family="sans-serif" font-size="14" lengthAdjust="spacing" textLength="12" x="789" y="145.1426">   </text><line style="stroke:#000000;stroke-width:1.0;" x1="784" x2="784" y1="128.6094" y2="150.2188"/><rect fill="none" height="43.2188" rx="5" ry="5" style="stroke:#000000;stroke-width:1.5;" width="230" x="670" y="107"/><rect fill="#F1F1F1" height="64.8281" rx="5" ry="5" style="stroke:#F1F1F1;stroke-width:1.5;" width="180" x="942" y="113"/><text fill="#000000" font-family="sans-serif" font-size="14" font-weight="bold" lengthAdjust="spacing" textLength="100" x="947" y="129.5332">difficulty_easy</text><text fill="#000000" font-family="sans-serif" font-size="14" lengthAdjust="spacing" textLength="31" x="1073" y="129.5332">Easy</text><line style="stroke:#000000;stroke-width:1.0;" x1="1068" x2="1068" y1="113" y2="134.6094"/><line style="stroke:#000000;stroke-width:1.0;" x1="942" x2="1122" y1="134.6094" y2="134.6094"/><text fill="#000000" font-family="sans-serif" font-size="14" font-weight="bold" lengthAdjust="spacing" textLength="116" x="947" y="151.1426">difficulty_normal</text><text fill="#000000" font-family="sans-serif" font-size="14" lengthAdjust="spacing" textLength="44" x="1073" y="151.1426">Normal</text><line style="stroke:#000000;stroke-width:1.0;" x1="1068" x2="1068" y1="134.6094" y2="156.2188"/><line style="stroke:#000000;stroke-width:1.0;" x1="942" x2="1122" y1="156.2188" y2="156.2188"/><text fill="#000000" font-family="sans-serif" font-size="14" font-weight="bold" lengthAdjust="spacing" textLength="100" x="947" y="172.752">difficulty_hard</text><text fill="#000000" font-family="sans-serif" font-size="14" lengthAdjust="spacing" textLength="30" x="1073" y="172.752">Hard</text><line style="stroke:#000000;stroke-width:1.0;" x1="1068" x2="1068" y1="156.2188" y2="177.8281"/><rect fill="none" height="64.8281" rx="5" ry="5" style="stroke:#000000;stroke-width:1.5;" width="180" x="942" y="113"/><rect fill="#F1F1F1" height="21.6094" rx="5" ry="5" style="stroke:#F1F1F1;stroke-width:1.5;" width="148" x="450" y="132.5"/><text fill="#000000" font-family="sans-serif" font-size="14" font-weight="bold" lengthAdjust="spacing" textLength="56" x="455" y="149.0332">startBtn</text><text fill="#000000" font-family="sans-serif" font-size="14" lengthAdjust="spacing" textLength="72" x="521" y="149.0332">Start Game</text><line style="stroke:#000000;stroke-width:1.0;" x1="516" x2="516" y1="132.5" y2="154.1094"/><rect fill="none" height="21.6094" rx="5" ry="5" style="stroke:#000000;stroke-width:1.5;" width="148" x="450" y="132.5"/><path d="M366,71.5 L379,71.5 C395.6058,71.5 398.9974,65.9349 415,61.5 C422.5703,59.402 430.4381,57.2232 438.3235,55.0408 " fill="none" style="stroke:#000000;stroke-width:1.0;stroke-dasharray:3.0,3.0;"/><path d="M439.1248,57.9362 L440.4951,54.4398 L437.5223,52.1453 L445.5621,53.0377 L439.1248,57.9362 " fill="#000000" style="stroke:#000000;stroke-width:1.0;"/><ellipse cx="366" cy="71.5" fill="#000000" rx="3" ry="3" style="stroke:#000000;stroke-width:1.0;"/><path d="M875.5,67.5 L888.5,67.5 C901.8096,67.5 915.8118,67.281 929.6337,66.9346 " fill="none" style="stroke:#000000;stroke-width:1.0;stroke-dasharray:3.0,3.0;"/><path d="M929.7157,69.9965 L931.9302,66.8732 L929.5518,63.8727 L937.2885,66.7297 L929.7157,69.9965 " fill="#000000" style="stroke:#000000;stroke-width:1.0;"/><ellipse cx="875.5" cy="67.5" fill="#000000" rx="3" ry="3" style="stroke:#000000;stroke-width:1.0;"/><path d="M578.5,81.5 L591.5,81.5 C618.9862,81.5 648.4931,78.9754 675.9609,75.5307 " fill="none" style="stroke:#000000;stroke-width:1.0;stroke-dasharray:3.0,3.0;"/><path d="M676.3587,78.6067 L678.2678,75.2324 L675.563,72.4548 L683.6508,74.5361 L676.3587,78.6067 " fill="#000000" style="stroke:#000000;stroke-width:1.0;"/><ellipse cx="578.5" cy="81.5" fill="#000000" rx="3" ry="3" style="stroke:#000000;stroke-width:1.0;"/><path d="M888,139.5 L901,139.5 C911.8723,139.5 923.2488,139.7104 934.5593,140.0524 " fill="none" style="stroke:#000000;stroke-width:1.0;stroke-dasharray:3.0,3.0;"/><path d="M934.4566,143.1775 L936.9032,140.1294 L934.662,136.9272 L942.3722,140.3092 L934.4566,143.1775 " fill="#000000" style="stroke:#000000;stroke-width:1.0;"/><ellipse cx="888" cy="139.5" fill="#000000" rx="3" ry="3" style="stroke:#000000;stroke-width:1.0;"/><path d="M578.5,103.5 L591.5,103.5 C614.5942,103.5 639.115,105.2823 662.6542,107.895 " fill="none" style="stroke:#000000;stroke-width:1.0;stroke-dasharray:3.0,3.0;"/><path d="M662.3037,110.937 L664.9357,108.1579 L663.0047,104.853 L670.2592,108.7713 L662.3037,110.937 " fill="#000000" style="stroke:#000000;stroke-width:1.0;"/><ellipse cx="578.5" cy="103.5" fill="#000000" rx="3" ry="3" style="stroke:#000000;stroke-width:1.0;"/><path d="M366,92.5 L379,92.5 C402.4405,92.5 428.0199,92.5 451.0541,92.5 " fill="none" style="stroke:#000000;stroke-width:1.0;stroke-dasharray:3.0,3.0;"/><path d="M451.0541,95.5829 L453.3663,92.5 L451.0541,89.4171 L458.7613,92.5 L451.0541,95.5829 " fill="#000000" style="stroke:#000000;stroke-width:1.0;"/><ellipse cx="366" cy="92.5" fill="#000000" rx="3" ry="3" style="stroke:#000000;stroke-width:1.0;"/><path d="M366,115.5 L379,115.5 C395.3903,115.5 398.938,120.2361 415,123.5 C427.5528,126.0508 440.9514,128.6338 453.8974,131.058 " fill="none" style="stroke:#000000;stroke-width:1.0;stroke-dasharray:3.0,3.0;"/><path d="M453.3343,134.0821 L456.1654,131.4802 L454.4604,128.0339 L461.4576,132.4655 L453.3343,134.0821 " fill="#000000" style="stroke:#000000;stroke-width:1.0;"/><ellipse cx="366" cy="115.5" fill="#000000" rx="3" ry="3" style="stroke:#000000;stroke-width:1.0;"/><path d="M211,93.5 L224,93.5 C233.2561,93.5 243.0221,93.5 252.6238,93.5 " fill="none" style="stroke:#000000;stroke-width:1.0;stroke-dasharray:3.0,3.0;"/><path d="M252.6238,96.5609 L254.9195,93.5 L252.6238,90.4391 L260.276,93.5 L252.6238,96.5609 " fill="#000000" style="stroke:#000000;stroke-width:1.0;"/><ellipse cx="211" cy="93.5" fill="#000000" rx="3" ry="3" style="stroke:#000000;stroke-width:1.0;"/><path d="M70,93.5 L83,93.5 C92.2297,93.5 102.007,93.5 111.5522,93.5 " fill="none" style="stroke:#000000;stroke-width:1.0;stroke-dasharray:3.0,3.0;"/><path d="M111.5522,96.5361 L113.8293,93.5 L111.5522,90.4639 L119.1425,93.5 L111.5522,96.5361 " fill="#000000" style="stroke:#000000;stroke-width:1.0;"/><ellipse cx="70" cy="93.5" fill="#000000" rx="3" ry="3" style="stroke:#000000;stroke-width:1.0;"/><!--MD5=[60b3f6a348fc89fa10ed9df27fac2682]
@startyaml menuUI
    
    Menu:
        mainPanel:
            startPanel:
                title: "Game Title"
                instructions: "Game Instructions"

            choicePanel:
                mapPanel:
                    mapLabel: "Choose Map Size"
                    mapGroup:
                        mapSize_small: "Small"
                        mapSize_medium: "Medium"
                        mapSize_large: "Large"

                difficultyPanel:
                    difficultyLabel: "Choose Difficulty"
                    difficultyGroup:
                        difficulty_easy: "Easy"
                        difficulty_normal: "Normal"
                        difficulty_hard: "Hard"

            endPanel:
                startBtn: "Start Game"

@endyaml

PlantUML version 1.2022.7(Mon Aug 22 22:01:30 PKT 2022)
(GPL source distribution)
Java Runtime: OpenJDK Runtime Environment
JVM: OpenJDK 64-Bit Server VM
Default Encoding: UTF-8
Language: en
Country: US
--></g></svg>