<?xml version="1.0" encoding="UTF-8" standalone="no"?><svg xmlns="http://www.w3.org/2000/svg" xmlns:xlink="http://www.w3.org/1999/xlink" contentStyleType="text/css" height="189px" preserveAspectRatio="none" style="width:998px;height:189px;background:#FFFFFF;" version="1.1" viewBox="0 0 998 189" width="998px" zoomAndPan="magnify"><defs/><g><rect fill="#F1F1F1" height="21.6094" rx="5" ry="5" style="stroke:#F1F1F1;stroke-width:1.5;" width="72" x="10" y="82.5"/><text fill="#000000" font-family="sans-serif" font-size="14" font-weight="bold" lengthAdjust="spacing" textLength="40" x="15" y="99.0332">Menu</text><text fill="#000000" font-family="sans-serif" font-size="14" lengthAdjust="spacing" textLength="12" x="65" y="99.0332">   </text><line style="stroke:#000000;stroke-width:1.0;" x1="60" x2="60" y1="82.5" y2="104.1094"/><rect fill="none" height="21.6094" rx="5" ry="5" style="stroke:#000000;stroke-width:1.5;" width="72" x="10" y="82.5"/><rect fill="#F1F1F1" height="64.8281" rx="5" ry="5" style="stroke:#F1F1F1;stroke-width:1.5;" width="118" x="119" y="61"/><text fill="#000000" font-family="sans-serif" font-size="14" font-weight="bold" lengthAdjust="spacing" textLength="71" x="124" y="77.5332">startPanel</text><text fill="#000000" font-family="sans-serif" font-size="14" lengthAdjust="spacing" textLength="12" x="220" y="77.5332">   </text><line style="stroke:#000000;stroke-width:1.0;" x1="215" x2="215" y1="61" y2="82.6094"/><line style="stroke:#000000;stroke-width:1.0;" x1="119" x2="237" y1="82.6094" y2="82.6094"/><text fill="#000000" font-family="sans-serif" font-size="14" font-weight="bold" lengthAdjust="spacing" textLength="86" x="124" y="99.1426">choicePanel</text><text fill="#000000" font-family="sans-serif" font-size="14" lengthAdjust="spacing" textLength="12" x="220" y="99.1426">   </text><line style="stroke:#000000;stroke-width:1.0;" x1="215" x2="215" y1="82.6094" y2="104.2188"/><line style="stroke:#000000;stroke-width:1.0;" x1="119" x2="237" y1="104.2188" y2="104.2188"/><text fill="#000000" font-family="sans-serif" font-size="14" font-weight="bold" lengthAdjust="spacing" textLength="66" x="124" y="120.752">endPanel</text><text fill="#000000" font-family="sans-serif" font-size="14" lengthAdjust="spacing" textLength="12" x="220" y="120.752">   </text><line style="stroke:#000000;stroke-width:1.0;" x1="215" x2="215" y1="104.2188" y2="125.8281"/><rect fill="none" height="64.8281" rx="5" ry="5" style="stroke:#000000;stroke-width:1.5;" width="118" x="119" y="61"/><rect fill="#F1F1F1" height="43.2188" rx="5" ry="5" style="stroke:#F1F1F1;stroke-width:1.5;" width="218" x="274" y="10"/><text fill="#000000" font-family="sans-serif" font-size="14" font-weight="bold" lengthAdjust="spacing" textLength="27" x="279" y="26.5332">title</text><text fill="#000000" font-family="sans-serif" font-size="14" lengthAdjust="spacing" textLength="69" x="373" y="26.5332">Game Title</text><line style="stroke:#000000;stroke-width:1.0;" x1="368" x2="368" y1="10" y2="31.6094"/><line style="stroke:#000000;stroke-width:1.0;" x1="274" x2="492" y1="31.6094" y2="31.6094"/><text fill="#000000" font-family="sans-serif" font-size="14" font-weight="bold" lengthAdjust="spacing" textLength="84" x="279" y="48.1426">instructions</text><text fill="#000000" font-family="sans-serif" font-size="14" lengthAdjust="spacing" textLength="114" x="373" y="48.1426">Game Instructions</text><line style="stroke:#000000;stroke-width:1.0;" x1="368" x2="368" y1="31.6094" y2="53.2188"/><rect fill="none" height="43.2188" rx="5" ry="5" style="stroke:#000000;stroke-width:1.5;" width="218" x="274" y="10"/><rect fill="#F1F1F1" height="43.2188" rx="5" ry="5" style="stroke:#F1F1F1;stroke-width:1.5;" width="131" x="317.5" y="71"/><text fill="#000000" font-family="sans-serif" font-size="14" font-weight="bold" lengthAdjust="spacing" textLength="68" x="322.5" y="87.5332">mapPanel</text><text fill="#000000" font-family="sans-serif" font-size="14" lengthAdjust="spacing" textLength="12" x="431.5" y="87.5332">   </text><line style="stroke:#000000;stroke-width:1.0;" x1="426.5" x2="426.5" y1="71" y2="92.6094"/><line style="stroke:#000000;stroke-width:1.0;" x1="317.5" x2="448.5" y1="92.6094" y2="92.6094"/><text fill="#000000" font-family="sans-serif" font-size="14" font-weight="bold" lengthAdjust="spacing" textLength="99" x="322.5" y="109.1426">difficultyPanel</text><text fill="#000000" font-family="sans-serif" font-size="14" lengthAdjust="spacing" textLength="12" x="431.5" y="109.1426">   </text><line style="stroke:#000000;stroke-width:1.0;" x1="426.5" x2="426.5" y1="92.6094" y2="114.2188"/><rect fill="none" height="43.2188" rx="5" ry="5" style="stroke:#000000;stroke-width:1.5;" width="131" x="317.5" y="71"/><rect fill="#F1F1F1" height="43.2188" rx="5" ry="5" style="stroke:#F1F1F1;stroke-width:1.5;" width="203" x="542.5" y="35"/><text fill="#000000" font-family="sans-serif" font-size="14" font-weight="bold" lengthAdjust="spacing" textLength="67" x="547.5" y="51.5332">mapLabel</text><text fill="#000000" font-family="sans-serif" font-size="14" lengthAdjust="spacing" textLength="110" x="630.5" y="51.5332">Choose Map Size</text><line style="stroke:#000000;stroke-width:1.0;" x1="625.5" x2="625.5" y1="35" y2="56.6094"/><line style="stroke:#000000;stroke-width:1.0;" x1="542.5" x2="745.5" y1="56.6094" y2="56.6094"/><text fill="#000000" font-family="sans-serif" font-size="14" font-weight="bold" lengthAdjust="spacing" textLength="73" x="547.5" y="73.1426">mapGroup</text><text fill="#000000" font-family="sans-serif" font-size="14" lengthAdjust="spacing" textLength="12" x="630.5" y="73.1426">   </text><line style="stroke:#000000;stroke-width:1.0;" x1="625.5" x2="625.5" y1="56.6094" y2="78.2188"/><rect fill="none" height="43.2188" rx="5" ry="5" style="stroke:#000000;stroke-width:1.5;" width="203" x="542.5" y="35"/><rect fill="#F1F1F1" height="64.8281" rx="5" ry="5" style="stroke:#F1F1F1;stroke-width:1.5;" width="190" x="796" y="30"/><text fill="#000000" font-family="sans-serif" font-size="14" font-weight="bold" lengthAdjust="spacing" textLength="102" x="801" y="46.5332">mapSize_small</text><text fill="#000000" font-family="sans-serif" font-size="14" lengthAdjust="spacing" textLength="34" x="932" y="46.5332">Small</text><line style="stroke:#000000;stroke-width:1.0;" x1="927" x2="927" y1="30" y2="51.6094"/><line style="stroke:#000000;stroke-width:1.0;" x1="796" x2="986" y1="51.6094" y2="51.6094"/><text fill="#000000" font-family="sans-serif" font-size="14" font-weight="bold" lengthAdjust="spacing" textLength="121" x="801" y="68.1426">mapSize_medium</text><text fill="#000000" font-family="sans-serif" font-size="14" lengthAdjust="spacing" textLength="49" x="932" y="68.1426">Medium</text><line style="stroke:#000000;stroke-width:1.0;" x1="927" x2="927" y1="51.6094" y2="73.2188"/><line style="stroke:#000000;stroke-width:1.0;" x1="796" x2="986" y1="73.2188" y2="73.2188"/><text fill="#000000" font-family="sans-serif" font-size="14" font-weight="bold" lengthAdjust="spacing" textLength="102" x="801" y="89.752">mapSize_large</text><text fill="#000000" font-family="sans-serif" font-size="14" lengthAdjust="spacing" textLength="37" x="932" y="89.752">Large</text><line style="stroke:#000000;stroke-width:1.0;" x1="927" x2="927" y1="73.2188" y2="94.8281"/><rect fill="none" height="64.8281" rx="5" ry="5" style="stroke:#000000;stroke-width:1.5;" width="190" x="796" y="30"/><rect fill="#F1F1F1" height="43.2188" rx="5" ry="5" style="stroke:#F1F1F1;stroke-width:1.5;" width="230" x="529" y="107"/><text fill="#000000" font-family="sans-serif" font-size="14" font-weight="bold" lengthAdjust="spacing" textLength="98" x="534" y="123.5332">difficultyLabel</text><text fill="#000000" font-family="sans-serif" font-size="14" lengthAdjust="spacing" textLength="106" x="648" y="123.5332">Choose Difficulty</text><line style="stroke:#000000;stroke-width:1.0;" x1="643" x2="643" y1="107" y2="128.6094"/><line style="stroke:#000000;stroke-width:1.0;" x1="529" x2="759" y1="128.6094" y2="128.6094"/><text fill="#000000" font-family="sans-serif" font-size="14" font-weight="bold" lengthAdjust="spacing" textLength="104" x="534" y="145.1426">difficultyGroup</text><text fill="#000000" font-family="sans-serif" font-size="14" lengthAdjust="spacing" textLength="12" x="648" y="145.1426">   </text><line style="stroke:#000000;stroke-width:1.0;" x1="643" x2="643" y1="128.6094" y2="150.2188"/><rect fill="none" height="43.2188" rx="5" ry="5" style="stroke:#000000;stroke-width:1.5;" width="230" x="529" y="107"/><rect fill="#F1F1F1" height="64.8281" rx="5" ry="5" style="stroke:#F1F1F1;stroke-width:1.5;" width="180" x="801" y="113"/><text fill="#000000" font-family="sans-serif" font-size="14" font-weight="bold" lengthAdjust="spacing" textLength="100" x="806" y="129.5332">difficulty_easy</text><text fill="#000000" font-family="sans-serif" font-size="14" lengthAdjust="spacing" textLength="31" x="932" y="129.5332">Easy</text><line style="stroke:#000000;stroke-width:1.0;" x1="927" x2="927" y1="113" y2="134.6094"/><line style="stroke:#000000;stroke-width:1.0;" x1="801" x2="981" y1="134.6094" y2="134.6094"/><text fill="#000000" font-family="sans-serif" font-size="14" font-weight="bold" lengthAdjust="spacing" textLength="116" x="806" y="151.1426">difficulty_normal</text><text fill="#000000" font-family="sans-serif" font-size="14" lengthAdjust="spacing" textLength="44" x="932" y="151.1426">Normal</text><line style="stroke:#000000;stroke-width:1.0;" x1="927" x2="927" y1="134.6094" y2="156.2188"/><line style="stroke:#000000;stroke-width:1.0;" x1="801" x2="981" y1="156.2188" y2="156.2188"/><text fill="#000000" font-family="sans-serif" font-size="14" font-weight="bold" lengthAdjust="spacing" textLength="100" x="806" y="172.752">difficulty_hard</text><text fill="#000000" font-family="sans-serif" font-size="14" lengthAdjust="spacing" textLength="30" x="932" y="172.752">Hard</text><line style="stroke:#000000;stroke-width:1.0;" x1="927" x2="927" y1="156.2188" y2="177.8281"/><rect fill="none" height="64.8281" rx="5" ry="5" style="stroke:#000000;stroke-width:1.5;" width="180" x="801" y="113"/><rect fill="#F1F1F1" height="21.6094" rx="5" ry="5" style="stroke:#F1F1F1;stroke-width:1.5;" width="148" x="309" y="132.5"/><text fill="#000000" font-family="sans-serif" font-size="14" font-weight="bold" lengthAdjust="spacing" textLength="56" x="314" y="149.0332">startBtn</text><text fill="#000000" font-family="sans-serif" font-size="14" lengthAdjust="spacing" textLength="72" x="380" y="149.0332">Start Game</text><line style="stroke:#000000;stroke-width:1.0;" x1="375" x2="375" y1="132.5" y2="154.1094"/><rect fill="none" height="21.6094" rx="5" ry="5" style="stroke:#000000;stroke-width:1.5;" width="148" x="309" y="132.5"/><path d="M225,71.5 L238,71.5 C254.6058,71.5 257.9974,65.9349 274,61.5 C281.5703,59.402 289.4381,57.2232 297.3235,55.0408 " fill="none" style="stroke:#000000;stroke-width:1.0;stroke-dasharray:3.0,3.0;"/><path d="M298.1248,57.9362 L299.4951,54.4398 L296.5223,52.1453 L304.5621,53.0377 L298.1248,57.9362 " fill="#000000" style="stroke:#000000;stroke-width:1.0;"/><ellipse cx="225" cy="71.5" fill="#000000" rx="3" ry="3" style="stroke:#000000;stroke-width:1.0;"/><path d="M734.5,67.5 L747.5,67.5 C760.8096,67.5 774.8118,67.281 788.6337,66.9346 " fill="none" style="stroke:#000000;stroke-width:1.0;stroke-dasharray:3.0,3.0;"/><path d="M788.7157,69.9965 L790.9302,66.8732 L788.5518,63.8727 L796.2885,66.7297 L788.7157,69.9965 " fill="#000000" style="stroke:#000000;stroke-width:1.0;"/><ellipse cx="734.5" cy="67.5" fill="#000000" rx="3" ry="3" style="stroke:#000000;stroke-width:1.0;"/><path d="M437.5,81.5 L450.5,81.5 C477.9862,81.5 507.4931,78.9754 534.9609,75.5307 " fill="none" style="stroke:#000000;stroke-width:1.0;stroke-dasharray:3.0,3.0;"/><path d="M535.3587,78.6067 L537.2678,75.2324 L534.563,72.4548 L542.6508,74.5361 L535.3587,78.6067 " fill="#000000" style="stroke:#000000;stroke-width:1.0;"/><ellipse cx="437.5" cy="81.5" fill="#000000" rx="3" ry="3" style="stroke:#000000;stroke-width:1.0;"/><path d="M747,139.5 L760,139.5 C770.8723,139.5 782.2488,139.7104 793.5593,140.0524 " fill="none" style="stroke:#000000;stroke-width:1.0;stroke-dasharray:3.0,3.0;"/><path d="M793.4566,143.1775 L795.9032,140.1294 L793.662,136.9272 L801.3722,140.3092 L793.4566,143.1775 " fill="#000000" style="stroke:#000000;stroke-width:1.0;"/><ellipse cx="747" cy="139.5" fill="#000000" rx="3" ry="3" style="stroke:#000000;stroke-width:1.0;"/><path d="M437.5,103.5 L450.5,103.5 C473.5942,103.5 498.115,105.2823 521.6542,107.895 " fill="none" style="stroke:#000000;stroke-width:1.0;stroke-dasharray:3.0,3.0;"/><path d="M521.3037,110.937 L523.9357,108.1579 L522.0047,104.853 L529.2592,108.7713 L521.3037,110.937 " fill="#000000" style="stroke:#000000;stroke-width:1.0;"/><ellipse cx="437.5" cy="103.5" fill="#000000" rx="3" ry="3" style="stroke:#000000;stroke-width:1.0;"/><path d="M225,92.5 L238,92.5 C261.4405,92.5 287.0199,92.5 310.0541,92.5 " fill="none" style="stroke:#000000;stroke-width:1.0;stroke-dasharray:3.0,3.0;"/><path d="M310.0541,95.5829 L312.3663,92.5 L310.0541,89.4171 L317.7613,92.5 L310.0541,95.5829 " fill="#000000" style="stroke:#000000;stroke-width:1.0;"/><ellipse cx="225" cy="92.5" fill="#000000" rx="3" ry="3" style="stroke:#000000;stroke-width:1.0;"/><path d="M225,115.5 L238,115.5 C254.3903,115.5 257.938,120.2361 274,123.5 C286.5528,126.0508 299.9514,128.6338 312.8974,131.058 " fill="none" style="stroke:#000000;stroke-width:1.0;stroke-dasharray:3.0,3.0;"/><path d="M312.3343,134.0821 L315.1654,131.4802 L313.4604,128.0339 L320.4576,132.4655 L312.3343,134.0821 " fill="#000000" style="stroke:#000000;stroke-width:1.0;"/><ellipse cx="225" cy="115.5" fill="#000000" rx="3" ry="3" style="stroke:#000000;stroke-width:1.0;"/><path d="M70,93.5 L83,93.5 C92.2561,93.5 102.0221,93.5 111.6238,93.5 " fill="none" style="stroke:#000000;stroke-width:1.0;stroke-dasharray:3.0,3.0;"/><path d="M111.6238,96.5609 L113.9195,93.5 L111.6238,90.4391 L119.276,93.5 L111.6238,96.5609 " fill="#000000" style="stroke:#000000;stroke-width:1.0;"/><ellipse cx="70" cy="93.5" fill="#000000" rx="3" ry="3" style="stroke:#000000;stroke-width:1.0;"/><!--MD5=[f8ac44363d40d37486ca60b4c15332ef]
@startyaml menuUI
    
    Menu:
        startPanel:
            title: "Game Title"
            instructions: "Game Instructions"

        choicePanel:
            mapPanel:
                mapLabel: "Choose Map Size"
                mapGroup:
                    mapSize_small: "Small"
                    mapSize_medium: "Medium"
                    mapSize_large: "Large"

            difficultyPanel:
                difficultyLabel: "Choose Difficulty"
                difficultyGroup:
                    difficulty_easy: "Easy"
                    difficulty_normal: "Normal"
                    difficulty_hard: "Hard"

        endPanel:
            startBtn: "Start Game"

@endyaml

PlantUML version 1.2022.7(Mon Aug 22 22:01:30 PKT 2022)
(GPL source distribution)
Java Runtime: OpenJDK Runtime Environment
JVM: OpenJDK 64-Bit Server VM
Default Encoding: UTF-8
Language: en
Country: US
--></g></svg>