<?xml version="1.0" encoding="UTF-8" standalone="no"?><svg xmlns="http://www.w3.org/2000/svg" xmlns:xlink="http://www.w3.org/1999/xlink" contentStyleType="text/css" height="188px" preserveAspectRatio="none" style="width:1179px;height:188px;background:#FFFFFF;" version="1.1" viewBox="0 0 1179 188" width="1179px" zoomAndPan="magnify"><defs/><g><rect fill="#F1F1F1" height="21.6094" rx="5" ry="5" style="stroke:#F1F1F1;stroke-width:1.5;" width="72" x="10" y="82.5"/><text fill="#000000" font-family="sans-serif" font-size="14" font-weight="bold" lengthAdjust="spacing" textLength="40" x="15" y="99.0332">Menu</text><text fill="#000000" font-family="sans-serif" font-size="14" lengthAdjust="spacing" textLength="12" x="65" y="99.0332">   </text><line style="stroke:#000000;stroke-width:1.0;" x1="60" x2="60" y1="82.5" y2="104.1094"/><rect fill="none" height="21.6094" rx="5" ry="5" style="stroke:#000000;stroke-width:1.5;" width="72" x="10" y="82.5"/><rect fill="#F1F1F1" height="21.6094" rx="5" ry="5" style="stroke:#F1F1F1;stroke-width:1.5;" width="104" x="119" y="82.5"/><text fill="#000000" font-family="sans-serif" font-size="14" font-weight="bold" lengthAdjust="spacing" textLength="72" x="124" y="99.0332">mainPanel</text><text fill="#000000" font-family="sans-serif" font-size="14" lengthAdjust="spacing" textLength="12" x="206" y="99.0332">   </text><line style="stroke:#000000;stroke-width:1.0;" x1="201" x2="201" y1="82.5" y2="104.1094"/><rect fill="none" height="21.6094" rx="5" ry="5" style="stroke:#000000;stroke-width:1.5;" width="104" x="119" y="82.5"/><rect fill="#F1F1F1" height="64.8281" rx="5" ry="5" style="stroke:#F1F1F1;stroke-width:1.5;" width="118" x="260" y="61"/><text fill="#000000" font-family="sans-serif" font-size="14" font-weight="bold" lengthAdjust="spacing" textLength="71" x="265" y="77.5332">startPanel</text><text fill="#000000" font-family="sans-serif" font-size="14" lengthAdjust="spacing" textLength="12" x="361" y="77.5332">   </text><line style="stroke:#000000;stroke-width:1.0;" x1="356" x2="356" y1="61" y2="82.6094"/><line style="stroke:#000000;stroke-width:1.0;" x1="260" x2="378" y1="82.6094" y2="82.6094"/><text fill="#000000" font-family="sans-serif" font-size="14" font-weight="bold" lengthAdjust="spacing" textLength="86" x="265" y="99.1426">choicePanel</text><text fill="#000000" font-family="sans-serif" font-size="14" lengthAdjust="spacing" textLength="12" x="361" y="99.1426">   </text><line style="stroke:#000000;stroke-width:1.0;" x1="356" x2="356" y1="82.6094" y2="104.2188"/><line style="stroke:#000000;stroke-width:1.0;" x1="260" x2="378" y1="104.2188" y2="104.2188"/><text fill="#000000" font-family="sans-serif" font-size="14" font-weight="bold" lengthAdjust="spacing" textLength="66" x="265" y="120.752">endPanel</text><text fill="#000000" font-family="sans-serif" font-size="14" lengthAdjust="spacing" textLength="12" x="361" y="120.752">   </text><line style="stroke:#000000;stroke-width:1.0;" x1="356" x2="356" y1="104.2188" y2="125.8281"/><rect fill="none" height="64.8281" rx="5" ry="5" style="stroke:#000000;stroke-width:1.5;" width="118" x="260" y="61"/><rect fill="#F1F1F1" height="43.2188" rx="5" ry="5" style="stroke:#F1F1F1;stroke-width:1.5;" width="218" x="435" y="10"/><text fill="#000000" font-family="sans-serif" font-size="14" font-weight="bold" lengthAdjust="spacing" textLength="27" x="440" y="26.5332">title</text><text fill="#000000" font-family="sans-serif" font-size="14" lengthAdjust="spacing" textLength="69" x="534" y="26.5332">Game Title</text><line style="stroke:#000000;stroke-width:1.0;" x1="529" x2="529" y1="10" y2="31.6094"/><line style="stroke:#000000;stroke-width:1.0;" x1="435" x2="653" y1="31.6094" y2="31.6094"/><text fill="#000000" font-family="sans-serif" font-size="14" font-weight="bold" lengthAdjust="spacing" textLength="84" x="440" y="48.1426">instructions</text><text fill="#000000" font-family="sans-serif" font-size="14" lengthAdjust="spacing" textLength="114" x="534" y="48.1426">Game Instructions</text><line style="stroke:#000000;stroke-width:1.0;" x1="529" x2="529" y1="31.6094" y2="53.2188"/><rect fill="none" height="43.2188" rx="5" ry="5" style="stroke:#000000;stroke-width:1.5;" width="218" x="435" y="10"/><rect fill="#F1F1F1" height="43.2188" rx="5" ry="5" style="stroke:#F1F1F1;stroke-width:1.5;" width="131" x="478.5" y="71"/><text fill="#000000" font-family="sans-serif" font-size="14" font-weight="bold" lengthAdjust="spacing" textLength="68" x="483.5" y="87.5332">mapPanel</text><text fill="#000000" font-family="sans-serif" font-size="14" lengthAdjust="spacing" textLength="12" x="592.5" y="87.5332">   </text><line style="stroke:#000000;stroke-width:1.0;" x1="587.5" x2="587.5" y1="71" y2="92.6094"/><line style="stroke:#000000;stroke-width:1.0;" x1="478.5" x2="609.5" y1="92.6094" y2="92.6094"/><text fill="#000000" font-family="sans-serif" font-size="14" font-weight="bold" lengthAdjust="spacing" textLength="99" x="483.5" y="109.1426">difficultyPanel</text><text fill="#000000" font-family="sans-serif" font-size="14" lengthAdjust="spacing" textLength="12" x="592.5" y="109.1426">   </text><line style="stroke:#000000;stroke-width:1.0;" x1="587.5" x2="587.5" y1="92.6094" y2="114.2188"/><rect fill="none" height="43.2188" rx="5" ry="5" style="stroke:#000000;stroke-width:1.5;" width="131" x="478.5" y="71"/><rect fill="#F1F1F1" height="43.2188" rx="5" ry="5" style="stroke:#F1F1F1;stroke-width:1.5;" width="203" x="723.5" y="35"/><text fill="#000000" font-family="sans-serif" font-size="14" font-weight="bold" lengthAdjust="spacing" textLength="67" x="728.5" y="51.5332">mapLabel</text><text fill="#000000" font-family="sans-serif" font-size="14" lengthAdjust="spacing" textLength="110" x="811.5" y="51.5332">Choose Map Size</text><line style="stroke:#000000;stroke-width:1.0;" x1="806.5" x2="806.5" y1="35" y2="56.6094"/><line style="stroke:#000000;stroke-width:1.0;" x1="723.5" x2="926.5" y1="56.6094" y2="56.6094"/><text fill="#000000" font-family="sans-serif" font-size="14" font-weight="bold" lengthAdjust="spacing" textLength="73" x="728.5" y="73.1426">mapGroup</text><text fill="#000000" font-family="sans-serif" font-size="14" lengthAdjust="spacing" textLength="12" x="811.5" y="73.1426">   </text><line style="stroke:#000000;stroke-width:1.0;" x1="806.5" x2="806.5" y1="56.6094" y2="78.2188"/><rect fill="none" height="43.2188" rx="5" ry="5" style="stroke:#000000;stroke-width:1.5;" width="203" x="723.5" y="35"/><rect fill="#F1F1F1" height="64.8281" rx="5" ry="5" style="stroke:#F1F1F1;stroke-width:1.5;" width="190" x="977" y="29"/><text fill="#000000" font-family="sans-serif" font-size="14" font-weight="bold" lengthAdjust="spacing" textLength="102" x="982" y="45.5332">mapSize_small</text><text fill="#000000" font-family="sans-serif" font-size="14" lengthAdjust="spacing" textLength="34" x="1113" y="45.5332">Small</text><line style="stroke:#000000;stroke-width:1.0;" x1="1108" x2="1108" y1="29" y2="50.6094"/><line style="stroke:#000000;stroke-width:1.0;" x1="977" x2="1167" y1="50.6094" y2="50.6094"/><text fill="#000000" font-family="sans-serif" font-size="14" font-weight="bold" lengthAdjust="spacing" textLength="121" x="982" y="67.1426">mapSize_medium</text><text fill="#000000" font-family="sans-serif" font-size="14" lengthAdjust="spacing" textLength="49" x="1113" y="67.1426">Medium</text><line style="stroke:#000000;stroke-width:1.0;" x1="1108" x2="1108" y1="50.6094" y2="72.2188"/><line style="stroke:#000000;stroke-width:1.0;" x1="977" x2="1167" y1="72.2188" y2="72.2188"/><text fill="#000000" font-family="sans-serif" font-size="14" font-weight="bold" lengthAdjust="spacing" textLength="102" x="982" y="88.752">mapSize_large</text><text fill="#000000" font-family="sans-serif" font-size="14" lengthAdjust="spacing" textLength="37" x="1113" y="88.752">Large</text><line style="stroke:#000000;stroke-width:1.0;" x1="1108" x2="1108" y1="72.2188" y2="93.8281"/><rect fill="none" height="64.8281" rx="5" ry="5" style="stroke:#000000;stroke-width:1.5;" width="190" x="977" y="29"/><rect fill="#F1F1F1" height="43.2188" rx="5" ry="5" style="stroke:#F1F1F1;stroke-width:1.5;" width="230" x="710" y="107"/><text fill="#000000" font-family="sans-serif" font-size="14" font-weight="bold" lengthAdjust="spacing" textLength="98" x="715" y="123.5332">difficultyLabel</text><text fill="#000000" font-family="sans-serif" font-size="14" lengthAdjust="spacing" textLength="106" x="829" y="123.5332">Choose Difficulty</text><line style="stroke:#000000;stroke-width:1.0;" x1="824" x2="824" y1="107" y2="128.6094"/><line style="stroke:#000000;stroke-width:1.0;" x1="710" x2="940" y1="128.6094" y2="128.6094"/><text fill="#000000" font-family="sans-serif" font-size="14" font-weight="bold" lengthAdjust="spacing" textLength="104" x="715" y="145.1426">difficultyGroup</text><text fill="#000000" font-family="sans-serif" font-size="14" lengthAdjust="spacing" textLength="12" x="829" y="145.1426">   </text><line style="stroke:#000000;stroke-width:1.0;" x1="824" x2="824" y1="128.6094" y2="150.2188"/><rect fill="none" height="43.2188" rx="5" ry="5" style="stroke:#000000;stroke-width:1.5;" width="230" x="710" y="107"/><rect fill="#F1F1F1" height="64.8281" rx="5" ry="5" style="stroke:#F1F1F1;stroke-width:1.5;" width="180" x="982" y="112"/><text fill="#000000" font-family="sans-serif" font-size="14" font-weight="bold" lengthAdjust="spacing" textLength="100" x="987" y="128.5332">difficulty_easy</text><text fill="#000000" font-family="sans-serif" font-size="14" lengthAdjust="spacing" textLength="31" x="1113" y="128.5332">Easy</text><line style="stroke:#000000;stroke-width:1.0;" x1="1108" x2="1108" y1="112" y2="133.6094"/><line style="stroke:#000000;stroke-width:1.0;" x1="982" x2="1162" y1="133.6094" y2="133.6094"/><text fill="#000000" font-family="sans-serif" font-size="14" font-weight="bold" lengthAdjust="spacing" textLength="116" x="987" y="150.1426">difficulty_normal</text><text fill="#000000" font-family="sans-serif" font-size="14" lengthAdjust="spacing" textLength="44" x="1113" y="150.1426">Normal</text><line style="stroke:#000000;stroke-width:1.0;" x1="1108" x2="1108" y1="133.6094" y2="155.2188"/><line style="stroke:#000000;stroke-width:1.0;" x1="982" x2="1162" y1="155.2188" y2="155.2188"/><text fill="#000000" font-family="sans-serif" font-size="14" font-weight="bold" lengthAdjust="spacing" textLength="100" x="987" y="171.752">difficulty_hard</text><text fill="#000000" font-family="sans-serif" font-size="14" lengthAdjust="spacing" textLength="30" x="1113" y="171.752">Hard</text><line style="stroke:#000000;stroke-width:1.0;" x1="1108" x2="1108" y1="155.2188" y2="176.8281"/><rect fill="none" height="64.8281" rx="5" ry="5" style="stroke:#000000;stroke-width:1.5;" width="180" x="982" y="112"/><rect fill="#F1F1F1" height="43.2188" rx="5" ry="5" style="stroke:#F1F1F1;stroke-width:1.5;" width="258" x="415" y="132"/><text fill="#000000" font-family="sans-serif" font-size="14" font-weight="bold" lengthAdjust="spacing" textLength="56" x="420" y="148.5332">startBtn</text><text fill="#000000" font-family="sans-serif" font-size="14" lengthAdjust="spacing" textLength="72" x="564" y="148.5332">Start Game</text><line style="stroke:#000000;stroke-width:1.0;" x1="559" x2="559" y1="132" y2="153.6094"/><line style="stroke:#000000;stroke-width:1.0;" x1="415" x2="673" y1="153.6094" y2="153.6094"/><text fill="#000000" font-family="sans-serif" font-size="14" font-weight="bold" lengthAdjust="spacing" textLength="134" x="420" y="170.1426">resetHighScoreBtn</text><text fill="#000000" font-family="sans-serif" font-size="14" lengthAdjust="spacing" textLength="104" x="564" y="170.1426">Reset Highscore</text><line style="stroke:#000000;stroke-width:1.0;" x1="559" x2="559" y1="153.6094" y2="175.2188"/><rect fill="none" height="43.2188" rx="5" ry="5" style="stroke:#000000;stroke-width:1.5;" width="258" x="415" y="132"/><path d="M366,71.5 L379,71.5 C395.6058,71.5 398.911,65.6108 415,61.5 C423.757,59.2626 432.8668,57.0022 442.0128,54.7792 " fill="none" style="stroke:#000000;stroke-width:1.0;stroke-dasharray:3.0,3.0;"/><path d="M442.7223,57.7139 L444.2138,54.2471 L441.3033,51.8446 L449.3494,53.0056 L442.7223,57.7139 " fill="#000000" style="stroke:#000000;stroke-width:1.0;"/><ellipse cx="366" cy="71.5" fill="#000000" rx="3" ry="3" style="stroke:#000000;stroke-width:1.0;"/><path d="M915.5,67.5 L928.5,67.5 C941.8132,67.5 955.8175,67.2372 969.6404,66.8216 " fill="none" style="stroke:#000000;stroke-width:1.0;stroke-dasharray:3.0,3.0;"/><path d="M969.7388,69.8837 L971.937,66.7478 L969.5421,63.7595 L977.2957,66.5756 L969.7388,69.8837 " fill="#000000" style="stroke:#000000;stroke-width:1.0;"/><ellipse cx="915.5" cy="67.5" fill="#000000" rx="3" ry="3" style="stroke:#000000;stroke-width:1.0;"/><path d="M598.5,81.5 L611.5,81.5 C645.6824,81.5 682.7413,78.2848 716.2175,74.1605 " fill="none" style="stroke:#000000;stroke-width:1.0;stroke-dasharray:3.0,3.0;"/><path d="M716.5977,77.1729 L718.4769,73.8754 L715.8374,71.148 L723.7487,73.2101 L716.5977,77.1729 " fill="#000000" style="stroke:#000000;stroke-width:1.0;"/><ellipse cx="598.5" cy="81.5" fill="#000000" rx="3" ry="3" style="stroke:#000000;stroke-width:1.0;"/><path d="M928,139.5 L941,139.5 C951.8688,139.5 963.2431,139.6753 974.5524,139.9603 " fill="none" style="stroke:#000000;stroke-width:1.0;stroke-dasharray:3.0,3.0;"/><path d="M974.4668,143.0852 L976.896,140.0245 L974.638,136.8355 L982.3645,140.1743 L974.4668,143.0852 " fill="#000000" style="stroke:#000000;stroke-width:1.0;"/><ellipse cx="928" cy="139.5" fill="#000000" rx="3" ry="3" style="stroke:#000000;stroke-width:1.0;"/><path d="M598.5,103.5 L611.5,103.5 C641.1904,103.5 673.0511,105.9257 702.8491,109.2659 " fill="none" style="stroke:#000000;stroke-width:1.0;stroke-dasharray:3.0,3.0;"/><path d="M702.5019,112.2774 L705.1077,109.5263 L703.1963,106.2544 L710.3779,110.1339 L702.5019,112.2774 " fill="#000000" style="stroke:#000000;stroke-width:1.0;"/><ellipse cx="598.5" cy="103.5" fill="#000000" rx="3" ry="3" style="stroke:#000000;stroke-width:1.0;"/><path d="M366,92.5 L379,92.5 C409.1487,92.5 442.4056,92.5 471.0804,92.5 " fill="none" style="stroke:#000000;stroke-width:1.0;stroke-dasharray:3.0,3.0;"/><path d="M471.0804,95.5288 L473.352,92.5 L471.0804,89.4712 L478.6525,92.5 L471.0804,95.5288 " fill="#000000" style="stroke:#000000;stroke-width:1.0;"/><ellipse cx="366" cy="92.5" fill="#000000" rx="3" ry="3" style="stroke:#000000;stroke-width:1.0;"/><path d="M366,115.5 L379,115.5 C379.9962,115.5 409.8389,122.3592 443.837,130.2492 " fill="none" style="stroke:#000000;stroke-width:1.0;stroke-dasharray:3.0,3.0;"/><path d="M443.1581,133.1728 L446.0297,130.7583 L444.5158,127.3256 L451.146,131.9463 L443.1581,133.1728 " fill="#000000" style="stroke:#000000;stroke-width:1.0;"/><ellipse cx="366" cy="115.5" fill="#000000" rx="3" ry="3" style="stroke:#000000;stroke-width:1.0;"/><path d="M211,93.5 L224,93.5 C233.2561,93.5 243.0221,93.5 252.6238,93.5 " fill="none" style="stroke:#000000;stroke-width:1.0;stroke-dasharray:3.0,3.0;"/><path d="M252.6238,96.5609 L254.9195,93.5 L252.6238,90.4391 L260.276,93.5 L252.6238,96.5609 " fill="#000000" style="stroke:#000000;stroke-width:1.0;"/><ellipse cx="211" cy="93.5" fill="#000000" rx="3" ry="3" style="stroke:#000000;stroke-width:1.0;"/><path d="M70,93.5 L83,93.5 C92.2297,93.5 102.007,93.5 111.5522,93.5 " fill="none" style="stroke:#000000;stroke-width:1.0;stroke-dasharray:3.0,3.0;"/><path d="M111.5522,96.5361 L113.8293,93.5 L111.5522,90.4639 L119.1425,93.5 L111.5522,96.5361 " fill="#000000" style="stroke:#000000;stroke-width:1.0;"/><ellipse cx="70" cy="93.5" fill="#000000" rx="3" ry="3" style="stroke:#000000;stroke-width:1.0;"/><!--MD5=[c8ac799c78342b54be6542d1a85fc0d5]
@startyaml menuUI
    
    Menu:
        mainPanel:
            startPanel:
                title: "Game Title"
                instructions: "Game Instructions"

            choicePanel:
                mapPanel:
                    mapLabel: "Choose Map Size"
                    mapGroup:
                        mapSize_small: "Small"
                        mapSize_medium: "Medium"
                        mapSize_large: "Large"

                difficultyPanel:
                    difficultyLabel: "Choose Difficulty"
                    difficultyGroup:
                        difficulty_easy: "Easy"
                        difficulty_normal: "Normal"
                        difficulty_hard: "Hard"

            endPanel:
                startBtn: "Start Game"
                resetHighScoreBtn: "Reset Highscore"

@endyaml

PlantUML version 1.2022.7(Mon Aug 22 22:01:30 PKT 2022)
(GPL source distribution)
Java Runtime: OpenJDK Runtime Environment
JVM: OpenJDK 64-Bit Server VM
Default Encoding: UTF-8
Language: en
Country: US
--></g></svg>